<svg width="42" height="27" viewBox="0 0 42 27" fill="none" xmlns="http://www.w3.org/2000/svg">
<path d="M0 8.20367L8.04086 16.0665L21.9089 0" transform="translate(2 7)" stroke="#E4C93D" stroke-width="4.38178"/>
<path d="M9.73467 6.52525L6.70458 5L9.73467 3.47475C9.98599 3.34824 10.0748 3.05709 9.93138 2.82949L9.51632 2.17049C9.37296 1.94289 9.05352 1.86777 8.80834 2.00402L5.85229 3.64684L5.92633 0.478789C5.93247 0.216035 5.7018 0 5.41506 0H4.58494C4.29823 0 4.06753 0.216035 4.07369 0.478789L4.14771 3.64684L1.19166 2.00404C0.946498 1.86779 0.62704 1.94291 0.483685 2.17051L0.0686207 2.82951C-0.0747341 3.05711 0.0140317 3.34826 0.26535 3.47477L3.29542 5L0.265329 6.52525C0.0140104 6.65176 -0.0747554 6.94291 0.0686207 7.17051L0.483685 7.82951C0.62704 8.05711 0.946498 8.13223 1.19166 7.99598L4.14771 6.35316L4.07367 9.52121C4.06753 9.78396 4.29823 10 4.58494 10H5.41509C5.70179 10 5.93249 9.78396 5.92635 9.52121L5.85229 6.35316L8.80834 7.99596C9.0535 8.13221 9.37296 8.05709 9.51632 7.82949L9.93138 7.17049C10.0747 6.94289 9.98599 6.65176 9.73467 6.52525V6.52525Z" transform="translate(42) scale(-1 1)" fill="#E4C93D"/>
</svg>
