<?xml version="1.0" encoding="utf-8"?>
<!-- Generator: Adobe Illustrator 22.1.0, SVG Export Plug-In . SVG Version: 6.00 Build 0)  -->
<svg version="1.1" id="Layer_1" xmlns="http://www.w3.org/2000/svg" xmlns:xlink="http://www.w3.org/1999/xlink" x="0px" y="0px"
	 viewBox="0 0 30 30" style="enable-background:new 0 0 30 30;" xml:space="preserve">
<g>
	<path d="M15.001,22.185c-3.133,0-5.522-2.114-6.755-4.816C7.008,14.658,2.332,6.995,2.332,6.995C0.864,9.313,0,12.052,0,14.999
		c0,7.522,5.546,13.737,12.771,14.817l4.663-8.082C16.671,22.014,15.858,22.185,15.001,22.185z"/>
	<path d="M28.876,9.313h-9.529c1.708,1.309,2.84,3.362,2.84,5.686c0,1.849-0.865,3.399-1.862,4.792
		c-1.709,2.383-5.782,10.19-5.782,10.19c0.153,0,0.306,0.019,0.459,0.019C23.284,30,30,23.284,30,14.999
		C30,12.986,29.6,11.066,28.876,9.313z"/>
	<path d="M14.968,7.82c3.285-0.024,13.125-0.127,13.125-0.127C25.527,3.107,20.636,0,15.001,0C10.305,0,6.112,2.16,3.367,5.54
		l4.582,8.139C8.565,10.356,11.468,7.846,14.968,7.82z"/>
	<path d="M10.146,14.999c0,2.682,2.173,4.855,4.855,4.855c2.68,0,4.847-2.173,4.847-4.855c0-2.674-2.166-4.847-4.847-4.847
		C12.319,10.152,10.146,12.325,10.146,14.999z"/>
</g>
</svg>
