<svg width="77" height="100" viewBox="0 0 77 100" version="1.1" xmlns="http://www.w3.org/2000/svg" xmlns:xlink="http://www.w3.org/1999/xlink">
<title>code branch</title>
<desc>Created using Figma</desc>
<g id="Canvas" transform="translate(-467 -1483)">
<g id="code branch">
<g id="Vector">
<use xlink:href="#path0_fill" transform="translate(467 1483)" fill="#BFDB7E"/>
</g>
<g id="Vector">
<use xlink:href="#path0_fill" transform="translate(512 1495)" fill="#BFDB7E"/>
</g>
<g id="Vector">
<use xlink:href="#path0_fill" transform="translate(467 1551)" fill="#BFDB7E"/>
</g>
<g id="Vector">
<use xlink:href="#path1_fill" transform="translate(481.5 1513.5)" fill="#BFDB7E"/>
</g>
<g id="Vector">
<use xlink:href="#path2_fill" transform="translate(475 1491)" fill="#BFDB7E"/>
</g>
<g id="Vector">
<use xlink:href="#path2_fill" transform="translate(520 1503)" fill="#BFDB7E"/>
</g>
<g id="Vector">
<use xlink:href="#path2_fill" transform="translate(475 1559)" fill="#BFDB7E"/>
</g>
</g>
</g>
<defs>
<path id="path0_fill" d="M 16 3C 23.2 3 29 8.8 29 16C 29 23.2 23.2 29 16 29C 8.8 29 3 23.2 3 16C 3 8.8 8.9 3 16 3ZM 16 0C 7.2 0 0 7.2 0 16C 0 24.8 7.2 32 16 32C 24.8 32 32 24.8 32 16C 32 7.2 24.9 0 16 0Z"/>
<path id="path1_fill" d="M 1.5 39C 0.7 39 0 38.3 0 37.5L 0 1.5C 0 0.7 0.7 0 1.5 0C 2.3 0 3 0.7 3 1.5L 3 30.1C 8.6 24.5 20.5 24.7 25.6 24.8C 26 24.8 26.4 24.8 26.7 24.8C 33.9 24.8 43.6 23.6 44.9 13.4C 45 12.6 45.8 12 46.6 12.1C 47.4 12.2 48 13 47.9 13.8C 46.1 27.8 31.5 27.8 26.7 27.8C 26.4 27.8 26 27.8 25.5 27.8C 21.2 27.7 9.8 27.6 5 32.3C 3.5 33.7 2.8 35.5 2.8 37.7C 3 38.3 2.3 39 1.5 39Z"/>
<path id="path2_fill" d="M 8 16C 12.4183 16 16 12.4183 16 8C 16 3.58172 12.4183 0 8 0C 3.58172 0 0 3.58172 0 8C 0 12.4183 3.58172 16 8 16Z"/>
</defs>
</svg>
