<?xml version="1.0" encoding="utf-8"?>
<!-- Generator: Adobe Illustrator 22.1.0, SVG Export Plug-In . SVG Version: 6.00 Build 0)  -->
<svg version="1.1" id="Layer_2" xmlns="http://www.w3.org/2000/svg" xmlns:xlink="http://www.w3.org/1999/xlink" x="0px" y="0px"
	 viewBox="0 0 47.3 61.1" style="enable-background:new 0 0 47.3 61.1;" xml:space="preserve">
<style type="text/css">
	.st0{fill:#1D3252;}
</style>
<g>
	<ellipse class="st0" cx="9.8" cy="9.8" rx="4.9" ry="4.9"/>
	<path class="st0" d="M37.5,12.2c-2.7,0-4.9,2.2-4.9,4.9c0,2.7,2.2,4.9,4.9,4.9c2.7,0,4.9-2.2,4.9-4.9
		C42.4,14.4,40.2,12.2,37.5,12.2z"/>
	<path class="st0" d="M47.3,17.1c0-5.4-4.4-9.8-9.8-9.8c-5.4,0-9.8,4.4-9.8,9.8c0,5,3.8,9.1,8.6,9.7c-0.4,3-2,4.7-4.1,5.6
		c-2.1,0.9-4.6,1.1-6.8,1.1c0,0-0.7,0-0.7,0c-1.6,0-4.2-0.1-6.9,0.3c-2.5,0.4-5,1.1-6.8,2.6V19.6c0,0,0,0,0-0.1
		c4.9-0.6,8.7-4.7,8.7-9.7c0-5.4-4.4-9.8-9.8-9.8C4.4,0,0,4.4,0,9.8c0,5,3.8,9.1,8.7,9.7c0,0,0,0,0,0.1v22c0,0,0,0,0,0.1
		C3.8,42.2,0,46.3,0,51.3c0,5.4,4.4,9.8,9.8,9.8c5.4,0,9.8-4.4,9.8-9.8c0-5-3.8-9.2-8.8-9.7c0-1.3,0.4-2.3,1.3-3.1l0,0l0,0
		c1.4-1.4,3.8-2.1,6.3-2.4c2.4-0.3,4.8-0.3,6.1-0.3c0,0,0.7,0,0.7,0c1.5,0,4.5,0,7.3-1.1c2.8-1.1,5.4-3.3,6-7.7l0,0
		c0-0.1,0-0.2,0-0.3C43.5,26.3,47.3,22.1,47.3,17.1z M2.5,9.8c0-4,3.3-7.3,7.3-7.3c4.1,0,7.3,3.3,7.3,7.3c0,4-3.3,7.3-7.3,7.3
		S2.5,13.8,2.5,9.8z M17.2,51.3c0,4-3.3,7.3-7.3,7.3s-7.3-3.3-7.3-7.3c0-4,3.3-7.3,7.3-7.3C13.9,44.1,17.2,47.3,17.2,51.3z
		 M37.5,24.4c-4,0-7.3-3.3-7.3-7.3c0-4,3.3-7.3,7.3-7.3c4.1,0,7.3,3.3,7.3,7.3C44.8,21.1,41.5,24.4,37.5,24.4z"/>
	<ellipse class="st0" cx="9.8" cy="51.3" rx="4.9" ry="4.9"/>
</g>
</svg>
