<svg width="148" height="38" viewBox="0 0 148 38" version="1.1" xmlns="http://www.w3.org/2000/svg" xmlns:xlink="http://www.w3.org/1999/xlink">
<title>Group</title>
<desc>Created using Figma</desc>
<g id="Canvas" transform="translate(-783 -1207)">
<g id="Group">
<g id="Group">
<g id="Vector">
<use xlink:href="#path0_fill" transform="translate(783.96 1207.02)" fill="#2B3748"/>
</g>
</g>
<g id="Group">
<g id="Vector">
<use xlink:href="#path1_fill" transform="translate(900.816 1230.26)" fill="#2B3748"/>
</g>
<g id="Vector">
<use xlink:href="#path2_fill" transform="translate(895.343 1226.75)" fill="#2B3748"/>
</g>
<g id="Vector">
<use xlink:href="#path3_fill" transform="translate(889.027 1230.24)" fill="#2B3748"/>
</g>
<g id="Vector">
<use xlink:href="#path4_fill" transform="translate(877.302 1230.24)" fill="#2B3748"/>
</g>
<g id="Vector">
<use xlink:href="#path5_fill" transform="translate(865.945 1230.24)" fill="#2B3748"/>
</g>
<g id="Vector">
<use xlink:href="#path6_fill" transform="translate(855.086 1230.24)" fill="#2B3748"/>
</g>
<g id="Vector">
<use xlink:href="#path7_fill" transform="translate(845.006 1225.58)" fill="#2B3748"/>
</g>
<g id="Vector">
<use xlink:href="#path8_fill" transform="translate(925.52 1212.18)" fill="#2B3748"/>
</g>
<g id="Vector">
<use xlink:href="#path9_fill" transform="translate(914.639 1212.18)" fill="#2B3748"/>
</g>
<g id="Vector">
<use xlink:href="#path10_fill" transform="translate(898.091 1212.16)" fill="#2B3748"/>
</g>
<g id="Vector">
<use xlink:href="#path11_fill" transform="translate(887.923 1212.29)" fill="#2B3748"/>
</g>
<g id="Vector">
<use xlink:href="#path12_fill" transform="translate(879.314 1212.2)" fill="#2B3748"/>
</g>
<g id="Vector">
<use xlink:href="#path13_fill" transform="translate(869.601 1212.16)" fill="#2B3748"/>
</g>
<g id="Vector">
<use xlink:href="#path14_fill" transform="translate(857.92 1212.18)" fill="#2B3748"/>
</g>
<g id="Vector">
<use xlink:href="#path15_fill" transform="translate(843.578 1207.43)" fill="#2B3748"/>
</g>
</g>
</g>
</g>
<defs>
<path id="path0_fill" d="M 28.5326 33.7276L 36.9475 33.7276L 36.9475 23.1369L 39.4352 23.1369L 45.5138 33.7276L 55.2482 33.7276L 47.85 21.5109C 51.3544 19.6653 53.7988 15.9519 53.7988 11.6234C 53.7988 5.44915 48.8451 0.46142 42.8098 0.46142L 28.5326 0.46142L 28.5326 4.78998C 25.4393 1.84568 21.3724 4.1909e-08 16.8297 4.1909e-08C 7.57121 4.1909e-08 2.06299e-08 7.60244 2.06299e-08 17.0945C 2.06299e-08 26.5866 7.57121 34.211 16.8513 34.211C 21.3941 34.211 25.4609 32.3653 28.5543 29.421L 28.5543 33.7276L 28.5326 33.7276ZM 22.8218 23.1369C 21.2859 24.6969 19.166 25.6637 16.8297 25.6637C 12.2005 25.6637 8.41485 21.8186 8.41485 17.1165C 8.41485 12.4144 12.2005 8.56922 16.8297 8.56922C 19.166 8.56922 21.2643 9.51404 22.8218 11.096L 28.5326 5.29534L 28.5326 28.9376L 22.8218 23.1369ZM 36.9475 15.6663L 36.9475 7.93202L 41.5335 7.93202C 43.6318 7.93202 45.3623 9.68981 45.3623 11.8211C 45.3623 13.9525 43.6318 15.6663 41.5335 15.6663L 36.9475 15.6663Z"/>
<path id="path1_fill" d="M 0.627328 8.28359L -5.28125e-06 9.16248C 0.951803 10.0194 2.2281 10.5907 3.87213 10.5907C 5.79738 10.5907 7.33325 9.53601 7.33325 7.66836C 7.33325 6.19621 6.6194 5.55901 4.34804 4.76801L 3.48276 4.46039C 2.20647 4.02094 1.51424 3.60347 1.51424 2.63668C 1.51424 1.45018 2.59584 0.988756 3.61254 0.988756C 4.56435 0.988756 5.6027 1.51609 6.33818 2.17526L 7.00877 1.25243C 6.05696 0.461421 4.99699 -3.35272e-07 3.61254 -3.35272e-07C 1.86035 -3.35272e-07 0.432635 0.944812 0.432635 2.7026C 0.432635 4.04292 1.23303 4.89984 3.15828 5.58098L 4.13172 5.93254C 5.58106 6.45988 6.25165 6.74552 6.25165 7.66836C 6.25165 9.00867 5.10515 9.60193 3.87213 9.60193C 2.59584 9.60193 1.44934 9.05262 0.627328 8.28359Z"/>
<path id="path2_fill" d="M 4.80237 13.4251L 4.49951 12.5243C 3.89381 12.8978 3.30974 13.0736 2.59587 13.0736C 1.60079 13.0736 1.12488 12.4583 1.12488 11.3597L 1.12488 4.65814L 4.71583 4.65814L 4.71583 3.60347L 1.12488 3.60347L 1.12488 -3.35272e-07L -2.64066e-06 -3.35272e-07L -2.64066e-06 11.3597C -2.64066e-06 13.0736 0.843659 14.1063 2.53098 14.1063C 3.37464 14.1063 4.11014 13.8646 4.80237 13.4251Z"/>
<path id="path3_fill" d="M 1.10323 10.5053L 1.10323 4.375C 1.34119 2.0679 3.2448 0.94731 5.17004 1.21098L 5.17004 0.0464419C 3.46112 -0.217227 1.88199 0.661669 1.10323 2.17776L 1.0816 0.11236L 1.32031e-06 0.11236L 1.32031e-06 10.5273L 1.10323 10.5273L 1.10323 10.5053Z"/>
<path id="path4_fill" d="M 5.21334 0C 2.33627 0 -1.32032e-06 2.39499 -1.32032e-06 5.31732C -1.32032e-06 8.23964 2.33627 10.6346 5.21334 10.6346C 8.0904 10.6346 10.4483 8.23964 10.4483 5.31732C 10.4483 2.37302 8.11204 0 5.21334 0ZM 5.21334 9.49207C 2.94197 9.49207 1.10324 7.60244 1.10324 5.29534C 1.10324 2.98825 2.94197 1.09862 5.21334 1.09862C 7.50634 1.09862 9.34507 2.98825 9.34507 5.29534C 9.34507 7.60244 7.50634 9.49207 5.21334 9.49207Z"/>
<path id="path5_fill" d="M 5.17004 0C 3.46111 0 1.96851 0.944812 1.10323 2.41696L 1.10323 0.109862L -1.32031e-06 0.109862L -1.32031e-06 14.7435L 1.10323 14.7435L 1.10323 8.1957C 1.96851 9.66785 3.50438 10.6346 5.23494 10.6346C 8.02547 10.6346 10.3401 8.23964 10.3401 5.31731C 10.3401 2.37302 8.00383 0 5.17004 0ZM 5.17004 9.49207C 2.92032 9.49207 1.10323 7.60244 1.10323 5.29534C 1.10323 2.98824 2.92032 1.09862 5.17004 1.09862C 7.41977 1.09862 9.23686 2.98824 9.23686 5.29534C 9.23686 7.60244 7.41977 9.49207 5.17004 9.49207Z"/>
<path id="path6_fill" d="M 9.60455 4.8559C 9.60455 1.95554 7.50626 0 4.91043 0C 2.24971 0 2.64061e-06 2.15329 2.64061e-06 5.27337C 2.64061e-06 8.3495 2.35787 10.6346 5.10512 10.6346C 6.74914 10.6346 8.15522 9.93151 9.15028 8.65712L 8.3499 7.97597C 7.59279 9.00868 6.46793 9.55799 5.10512 9.55799C 2.9852 9.55799 1.27628 7.88808 1.12486 5.58098L 9.60455 5.58098L 9.60455 4.8559ZM 1.14649 4.54828C 1.44934 2.43893 3.00683 1.0327 4.8888 1.0327C 6.77077 1.0327 8.32827 2.43893 8.45806 4.54828L 1.14649 4.54828Z"/>
<path id="path7_fill" d="M 5.88392 8.85487C 8.39324 8.45936 9.88586 6.61368 9.88586 4.46039C 9.88586 1.88962 8.1553 6.70544e-07 4.99701 6.70544e-07L 1.32032e-06 6.70544e-07L 1.32032e-06 15.1829L 1.16813 15.1829L 1.16813 8.94275L 4.49947 8.94275L 8.71773 15.1829L 10.1454 15.1829L 5.88392 8.85487ZM 1.16813 7.80019L 1.16813 1.12059L 4.97538 1.12059C 7.33328 1.12059 8.69609 2.46091 8.69609 4.46039C 8.69609 6.24015 7.50633 7.80019 4.93211 7.80019L 1.16813 7.80019Z"/>
<path id="path8_fill" d="M 1.10324 10.5053L 1.10324 4.375C 1.34119 2.0679 3.2448 0.94731 5.17005 1.21098L 5.17005 0.0464426C 3.46112 -0.217226 1.88199 0.661669 1.10324 2.17776L 1.0816 0.11236L -2.64062e-06 0.11236L -2.64062e-06 10.5273L 1.10324 10.5273L 1.10324 10.5053Z"/>
<path id="path9_fill" d="M 9.60462 4.85589C 9.60462 1.95554 7.50631 -1.67636e-07 4.91047 -1.67636e-07C 2.24973 -1.67636e-07 2.45928e-14 2.15329 2.45928e-14 5.27337C 2.45928e-14 8.3495 2.35788 10.6346 5.10515 10.6346C 6.74918 10.6346 8.15527 9.93151 9.15034 8.65711L 8.34995 7.97597C 7.59283 9.00867 6.46797 9.55798 5.10515 9.55798C 2.98521 9.55798 1.27629 7.88808 1.12487 5.58098L 9.60462 5.58098L 9.60462 4.85589ZM 1.14649 4.54828C 1.44934 2.43893 3.00684 1.0327 4.88883 1.0327C 6.77081 1.0327 8.32832 2.43893 8.45811 4.54828L 1.14649 4.54828Z"/>
<path id="path10_fill" d="M 1.1465 5.25139C 1.18976 2.50485 2.55258 1.05467 4.4562 1.05467C 6.05697 1.05467 7.11694 2.08737 7.09531 3.95502L 7.09531 10.5248L 8.19855 10.5248L 8.19855 5.25139C 8.24182 2.50485 9.60463 1.05467 11.5083 1.05467C 13.109 1.05467 14.169 2.08737 14.1474 3.95502L 14.1474 10.5248L 15.2506 10.5248L 15.2506 3.91108C 15.2722 1.47215 13.931 1.67636e-07 11.6164 1.67636e-07C 9.97238 1.67636e-07 8.58793 0.988756 7.98223 2.48288C 7.52796 0.944812 6.29493 1.67636e-07 4.54273 1.67636e-07C 3.02849 1.67636e-07 1.70893 0.878895 1.10323 2.19724L 1.10323 0.109862L -2.45928e-14 0.109862L -2.45928e-14 10.5248L 1.10323 10.5248L 1.10323 5.25139L 1.1465 5.25139Z"/>
<path id="path11_fill" d="M 7.44145 10.3929L 8.54468 10.3929L 8.54468 -1.67636e-07L 7.44145 -1.67636e-07L 7.44145 5.29534C 7.39818 8.04189 5.90556 9.49207 3.82888 9.49207C 2.18484 9.49207 1.10324 8.45936 1.10324 6.59171L 1.10324 -1.67636e-07L 1.22964e-14 -1.67636e-07L 1.22964e-14 6.61369C 1.22964e-14 9.05262 1.36282 10.5248 3.72072 10.5248C 5.40803 10.5248 6.83574 9.60193 7.46307 8.21767L 7.46307 10.3929L 7.44145 10.3929Z"/>
<path id="path12_fill" d="M 0.627335 8.28358L 2.64065e-06 9.16247C 0.951819 10.0194 2.22812 10.5907 3.87216 10.5907C 5.79743 10.5907 7.33331 9.53601 7.33331 7.66835C 7.33331 6.19621 6.61945 5.55901 4.34807 4.768L 3.48278 4.46039C 2.20648 4.02094 1.51426 3.60347 1.51426 2.63668C 1.51426 1.45018 2.59586 0.988757 3.61257 0.988757C 4.56439 0.988757 5.60274 1.51609 6.33823 2.17526L 7.00883 1.25242C 6.05701 0.461419 4.99703 -8.38179e-08 3.61257 -8.38179e-08C 1.86037 -8.38179e-08 0.432646 0.944812 0.432646 2.7026C 0.432646 4.04291 1.23303 4.89984 3.1583 5.58098L 4.13175 5.93254C 5.5811 6.45988 6.2517 6.74551 6.2517 7.66835C 6.2517 9.00867 5.1052 9.60192 3.87216 9.60192C 2.59586 9.60192 1.44936 9.05261 0.627335 8.28358Z"/>
<path id="path13_fill" d="M 1.12487 5.25139C 1.16813 2.50485 2.66074 1.05467 4.73742 1.05467C 6.38145 1.05467 7.46305 2.08737 7.46305 3.95502L 7.46305 10.5248L 8.56628 10.5248L 8.56628 3.91108C 8.56628 1.47215 7.20347 1.67636e-07 4.84558 1.67636e-07C 3.15828 1.67636e-07 1.73056 0.922839 1.10323 2.3071L 1.10323 0.109862L -2.64063e-06 0.109862L -2.64063e-06 10.5248L 1.10323 10.5248L 1.10323 5.25139L 1.12487 5.25139Z"/>
<path id="path14_fill" d="M 5.2133 -1.67636e-07C 2.33625 -1.67636e-07 -2.64062e-06 2.39499 -2.64062e-06 5.31731C -2.64062e-06 8.23964 2.33625 10.6346 5.2133 10.6346C 8.09036 10.6346 10.4482 8.23964 10.4482 5.31731C 10.4482 2.39499 8.09036 -1.67636e-07 5.2133 -1.67636e-07ZM 5.2133 9.49206C 2.94195 9.49206 1.10323 7.60244 1.10323 5.29534C 1.10323 2.98824 2.94195 1.09862 5.2133 1.09862C 7.50629 1.09862 9.34501 2.98824 9.34501 5.29534C 9.34501 7.60244 7.50629 9.49206 5.2133 9.49206Z"/>
<path id="path15_fill" d="M 12.6548 11.6454C 11.4866 13.1834 9.64791 14.1502 7.59286 14.1502C 4.08847 14.1502 1.2114 11.2499 1.2114 7.66836C 1.2114 4.10883 4.08847 1.20848 7.59286 1.20848C 9.66955 1.20848 11.4866 2.15329 12.6548 3.7353L 13.5417 2.85641C 12.1356 1.12059 9.97239 -4.1909e-08 7.59286 -4.1909e-08C 3.41787 -4.1909e-08 0 3.47163 0 7.69033C 0 11.931 3.41787 15.4026 7.59286 15.4026C 9.99403 15.4026 12.114 14.282 13.4984 12.5243L 12.6548 11.6454Z"/>
</defs>
</svg>
