<svg width="122" height="57" viewBox="0 0 122 57" version="1.1" xmlns="http://www.w3.org/2000/svg" xmlns:xlink="http://www.w3.org/1999/xlink">
<title>Darpa</title>
<desc>Created using Figma</desc>
<g id="Canvas" transform="translate(-246 -1199)">
<g id="Darpa">
<g id="Vector">
<use xlink:href="#path0_fill" transform="translate(246.8 1199.72)" fill="#2B3748"/>
</g>
</g>
</g>
<defs>
<path id="path0_fill" d="M 60.2877 55.4855C 47.6024 55.4633 35.1822 53.8276 23.1599 49.6498C 17.3476 47.6383 11.911 44.9415 7.15952 40.9626C 4.79483 38.9732 2.80584 36.6743 1.47984 33.8891C -0.663853 29.424 -0.464954 24.9588 1.98814 20.6705C 4.94953 15.498 9.61261 12.2044 14.7619 9.5076C 22.5632 5.41823 30.939 3.14144 39.5801 1.70463C 47.2267 0.44466 54.9175 -0.130064 62.6745 0.0246696C 74.6969 0.289926 86.5204 1.88147 97.8797 5.99295C 103.891 8.15921 109.615 10.9223 114.388 15.3211C 117.151 17.8632 119.317 20.8031 120.289 24.4504C 121.151 27.7219 120.775 30.905 119.206 33.9775C 116.841 38.6195 113.107 41.8026 108.753 44.4331C 100.068 49.694 90.4984 52.2803 80.5976 53.916C 73.9013 55.0434 67.1166 55.4855 60.2877 55.4855ZM 104.863 28.0756C 105.394 28.0756 105.792 28.0756 106.189 28.0756C 109.46 28.0756 112.731 28.0756 116.002 28.0977C 118.609 28.1198 118.897 27.6998 118.167 25.1356C 117.151 21.5768 114.985 18.8137 112.267 16.4485C 107.935 12.6907 102.808 10.2813 97.5261 8.22553C 97.3493 8.15921 97.1062 8.18132 97.0178 8.18132C 96.6421 9.13182 96.4211 10.0381 95.957 10.7897C 95.4487 11.6297 95.6918 12.0054 96.3769 12.5581C 98.9847 14.5696 101.151 16.979 102.698 19.9189C 104.024 22.3947 104.841 25.0251 104.863 28.0756ZM 15.9995 27.9651C 15.9332 21.1568 19.7123 16.4927 24.3091 12.4475C 23.6461 11.077 23.0494 9.83917 22.4527 8.5792C 22.3643 8.5792 22.2538 8.5792 22.1433 8.60131C 17.5686 10.3034 13.2591 12.536 9.41371 15.5422C 6.71752 17.6864 4.39703 20.1842 3.13733 23.4778C 2.60694 24.8925 2.12074 26.3514 2.36384 27.9651C 6.91642 27.9651 11.3585 27.9651 15.9995 27.9651ZM 2.34174 28.805C 2.73954 31.8555 4.02133 34.3533 5.94403 36.5638C 8.55182 39.5921 11.7784 41.8247 15.2702 43.6815C 17.8338 45.0299 20.5079 46.1572 23.1157 47.3951C 23.845 46.0025 24.4859 44.7868 25.1489 43.5268C 22.6295 41.5595 20.2648 39.3269 18.6073 36.4312C 17.3918 34.3312 16.2647 32.165 16.1542 29.6671C 16.11 28.805 15.7343 28.6503 14.9829 28.6503C 11.1154 28.6724 7.24792 28.6724 3.38043 28.6945C 3.04894 28.7166 2.73954 28.7829 2.34174 28.805ZM 97.6808 47.3951C 100.134 46.2678 102.609 45.2289 104.996 43.991C 109.327 41.7363 113.283 38.9732 116.134 34.8838C 117.394 33.0712 118.19 31.126 118.366 28.9377C 118.19 28.8492 118.123 28.7829 118.057 28.7829C 113.858 28.7608 109.659 28.7387 105.482 28.7829C 105.239 28.7829 104.841 29.225 104.797 29.4903C 104.178 33.2481 102.609 36.5417 100.09 39.3932C 98.7416 40.9405 97.4598 42.5542 96.1559 44.1457C 95.9791 43.9689 95.8244 43.8141 95.6476 43.6373C 96.2885 44.831 96.9294 46.0025 97.6808 47.3951ZM 84.5314 28.0314C 85.4596 28.0314 86.3436 27.9872 87.2055 28.0535C 87.8685 28.0977 88.1558 27.8545 88.3768 27.2135C 89.2607 24.6051 90.1889 22.0189 91.1834 19.4547C 91.316 19.1011 91.8685 18.7032 92.2663 18.659C 93.1724 18.5484 94.1006 18.5705 95.0288 18.659C 95.3382 18.6811 95.7802 18.9905 95.8907 19.2558C 96.7747 21.5547 97.6145 23.8536 98.4101 26.1746C 99.051 28.0093 99.0068 28.0314 100.907 28.0314C 101.637 28.0314 102.388 28.0093 103.117 28.0756C 103.935 28.1419 104.333 27.8766 104.09 27.0146C 103.582 25.0693 103.294 23.0578 102.565 21.201C 101.084 17.4874 98.2775 14.7906 95.073 12.3591C 91.9569 15.8296 87.9348 17.7085 83.6695 19.3C 86.4099 22.3283 86.5646 23.8978 84.5314 28.0314ZM 52.1771 43.3057C 53.8567 43.0847 55.3374 42.8194 56.8402 42.6868C 60.4867 42.3994 64.111 42.51 67.7133 43.2394C 68.3321 43.3721 68.6415 43.2173 68.7741 42.5321C 69.0835 40.8742 69.5034 39.2385 69.8128 37.5806C 69.9233 36.9838 69.8349 36.3649 69.8349 35.6575C 68.8183 35.6575 67.868 35.6133 66.9177 35.6796C 66.2105 35.7238 65.8127 35.547 65.7022 34.7954C 65.658 34.5523 65.3265 34.1765 65.1276 34.1765C 63.227 34.1323 61.3264 34.1544 59.3817 34.1544C 59.3375 34.5965 59.2933 35.0607 59.2491 35.5912C 58.0778 35.5912 56.9286 35.5912 55.7794 35.5912C 55.7131 35.1049 55.6689 34.707 55.6247 34.1765C 54.807 34.2207 54.0335 34.287 53.2379 34.3312C 53.2821 34.8617 53.3263 35.2154 53.3484 35.6133C 52.4423 35.6575 51.6246 35.7238 50.5638 35.768C 51.0942 38.3764 51.6246 40.83 52.1771 43.3057ZM 68.3763 11.5412C 65.9674 11.7844 63.7353 12.1823 61.5253 12.1823C 58.8071 12.1602 56.1109 11.8065 53.3926 11.5633C 52.8622 11.5191 52.3981 11.3644 52.2434 12.1381C 51.7793 14.4149 51.0721 16.6474 50.829 18.9242C 50.4533 22.262 49.7461 21.5768 53.2158 21.8641C 55.6247 22.0631 55.6468 21.9968 55.6689 19.521C 55.6689 18.8358 55.8236 18.5263 56.575 18.5263C 59.1828 18.5705 61.8126 18.4821 64.4204 18.5484C 66.3652 18.5926 68.1111 19.2116 69.194 21.0242C 69.3266 21.2452 69.6581 21.3557 69.9012 21.5326C 69.9896 21.2452 70.1664 20.9579 70.1222 20.6926C 69.8349 18.5926 69.5255 16.4706 69.1498 14.3927C 68.973 13.4422 68.6415 12.4917 68.3763 11.5412ZM 44.1769 8.82236C 43.3371 7.76133 42.5194 6.78872 41.768 5.7498C 41.3702 5.19718 40.9945 4.99824 40.3094 5.21928C 36.022 6.56767 31.8672 8.24763 28.0661 10.6792C 27.2263 11.2097 26.4086 11.8286 25.5688 12.4033C 25.7677 12.7128 25.834 12.8454 25.9445 12.9338C 29.2374 15.9843 33.2374 17.6642 37.4364 18.9905C 37.6353 19.0568 38.1215 18.7253 38.2541 18.46C 38.674 17.5758 38.9392 16.6032 39.3812 15.719C 40.7514 13.0665 42.2763 10.4802 44.1769 8.82236ZM 95.1172 43.1289C 99.8466 39.3711 103.449 35.1049 104.068 28.8492C 102.454 28.8492 100.996 28.8492 99.3162 28.8492C 100.156 31.1702 100.93 33.3586 101.769 35.7017C 100.797 35.7017 100.023 35.6133 99.272 35.7238C 98.0123 35.9228 97.5261 35.3259 97.2388 34.1986C 96.7526 32.2534 96.7084 32.2755 94.7857 32.2534C 94.2995 32.2534 93.8354 32.2313 93.3492 32.2534C 92.4431 32.2755 91.294 31.9881 90.6531 32.4081C 90.0343 32.8281 89.9679 34.0218 89.5923 34.8175C 89.4376 35.1491 89.1282 35.6133 88.8409 35.6354C 87.758 35.7238 86.6751 35.6796 85.4154 35.6796C 86.2331 33.2923 86.9624 31.0818 87.7359 28.8271C 86.4099 28.8271 85.2607 28.8271 84.1999 28.8271C 83.7579 31.3913 83.3601 33.8449 82.9181 36.4312C 87.2497 37.8901 91.5591 39.7248 95.1172 43.1289ZM 82.8076 18.8358C 87.1613 17.2664 91.316 15.5422 94.3879 12.0054C 94.2553 11.7844 94.2332 11.7181 94.189 11.6739C 89.9238 8.71183 85.2165 6.67819 80.2661 5.19718C 80.023 5.13086 79.6031 5.24139 79.4042 5.44033C 78.3876 6.43504 77.4373 7.45186 76.3765 8.5571C 79.3379 11.3202 81.1943 14.9012 82.8076 18.8358ZM 94.41 43.5931C 94.2774 43.3942 94.2111 43.2615 94.1227 43.1731C 93.9238 42.9742 93.6807 42.7752 93.4597 42.5984C 90.5425 40.1448 87.1171 38.6637 83.5811 37.3817C 82.7192 37.0722 82.4319 37.4259 82.1004 38.1111C 81.1501 39.9679 80.1998 41.8247 79.1169 43.5931C 78.4318 44.6983 77.5036 45.6488 76.7522 46.6214C 77.9235 47.8593 79.0064 49.0309 80.1998 50.2908C 85.1723 48.8761 89.9901 46.732 94.41 43.5931ZM 38.232 37.0501C 33.8562 38.4869 29.7456 40.189 26.2981 43.5268C 30.718 46.6214 35.2706 48.6772 40.1326 50.114C 40.3757 50.1803 40.7956 50.1803 40.9282 50.0477C 41.9669 48.8982 42.9614 47.7046 44.0001 46.4888C 41.4365 43.8142 39.6464 40.609 38.232 37.0501ZM 25.7235 43.1068C 28.9943 39.9458 32.8838 38.1111 37.0386 36.7185C 37.3701 36.608 37.6574 36.387 37.9668 36.2322C 37.7237 35.967 37.4806 35.6796 37.1933 35.348C 37.2596 35.0607 37.4806 34.6628 37.4364 34.287C 37.2596 32.607 37.0165 30.9271 36.7513 29.2692C 36.7292 29.0924 36.464 28.805 36.2872 28.805C 36.0883 28.7829 35.801 28.9598 35.6905 29.1366C 35.5579 29.3355 35.58 29.6229 35.5137 29.8882C 34.6739 33.7344 32.2429 35.7017 28.3313 35.7017C 26.3865 35.7017 24.4196 35.6575 22.4748 35.7238C 21.4582 35.768 21.2151 35.4143 21.2593 34.4638C 21.3256 32.607 21.2814 30.7281 21.2814 28.8271C 19.7123 28.8271 18.2758 28.8271 16.6846 28.8271C 17.436 35.1049 20.9941 39.4153 25.7235 43.1068ZM 52.2655 44.1236C 53.1274 46.0467 53.8788 47.8151 54.6965 49.5172C 56.0004 52.2361 58.0557 53.3634 61.1717 53.0539C 62.9176 52.8771 64.1552 52.4129 65.0834 50.9761C 66.4757 48.854 67.6691 46.6657 68.2437 44.0573C 62.9618 42.9742 57.7684 42.93 52.2655 44.1236ZM 68.3321 10.7013C 67.4481 8.93288 66.6967 7.36344 65.9232 5.79401C 64.6856 3.27407 62.8292 2.12462 59.8899 2.34567C 58.0336 2.4783 56.7076 3.00881 55.6689 4.55614C 54.3871 6.45715 53.3705 8.44657 52.7296 10.7455C 57.9231 11.8065 62.9397 11.8065 68.3321 10.7013ZM 38.453 19.3663C 39.8011 19.6979 40.7293 19.8968 41.6354 20.1842C 42.3205 20.4052 42.6962 20.2284 42.8288 19.521C 42.9835 18.7253 43.4697 18.4379 44.2432 18.5263C 44.5305 18.5705 44.8399 18.5263 45.1272 18.5484C 47.4256 18.5705 47.3814 18.5705 48.2875 20.7368C 48.4422 21.0905 49.0389 21.2673 49.4367 21.5105C 49.6135 21.201 49.9008 20.8915 49.9671 20.56C 50.5196 17.7527 51.0279 14.9454 51.6025 12.1381C 51.713 11.5412 51.7351 11.2318 51.05 11.0107C 49.3041 10.436 47.6245 9.70654 45.8786 9.10972C 45.5471 8.99919 44.9725 9.06551 44.7736 9.28655C 43.6023 10.6349 42.3647 11.9612 41.4144 13.4865C 40.3094 15.2769 39.4917 17.2443 38.453 19.3663ZM 51.3815 43.3942C 50.9616 41.0953 50.5417 38.6859 50.0776 36.2764C 49.8787 35.2596 48.9947 34.6849 48.0002 34.8838C 45.8123 35.3038 43.6023 35.7459 41.4144 36.188C 40.5967 36.3649 39.8232 36.5859 38.8729 36.8291C 39.1602 37.5143 39.337 38.0227 39.5801 38.509C 40.7735 41.029 42.0995 43.4826 44.0885 45.4941C 44.3537 45.7594 44.8841 46.113 45.1493 46.0025C 47.2488 45.2067 49.3262 44.2784 51.3815 43.3942ZM 69.2824 43.3942C 71.2714 44.212 73.2383 44.9194 75.1168 45.8257C 75.9124 46.2236 76.3323 46.0688 76.7743 45.4941C 77.6804 44.3447 78.697 43.2615 79.4263 42.0016C 80.3545 40.41 81.0617 38.6859 81.9236 36.9175C 81.2606 36.7185 80.8628 36.5859 80.4429 36.4312C 78.255 35.6354 76.0008 35.547 73.7245 35.6575C 73.393 35.6796 72.8626 35.5691 72.7742 35.3922C 72.3985 34.4638 71.6913 34.7512 71.0062 34.7291C 70.4095 37.6911 69.8349 40.5869 69.2824 43.3942ZM 36.0662 27.8766C 36.1767 27.943 36.2872 27.9872 36.3977 28.0535C 36.5303 27.6556 36.7071 27.2577 36.7513 26.8377C 37.0165 24.9146 37.1712 22.9694 37.5469 21.0684C 37.7237 20.1621 37.5911 19.8084 36.6629 19.4989C 32.6407 18.239 28.8175 16.5148 25.6793 13.597C 24.9942 12.9559 24.5522 13.0665 24.0439 13.597C 22.8726 14.7906 21.5908 15.9401 20.5521 17.2664C 18.32 20.1179 16.8172 23.3231 16.6846 27.0146C 16.6625 27.3461 16.994 27.943 17.1708 27.943C 18.5189 28.0314 19.867 27.9872 21.2814 27.9872C 21.2814 25.0472 21.3035 22.2841 21.2593 19.5432C 21.2593 18.7916 21.4803 18.5263 22.2538 18.5263C 24.4638 18.5705 26.6738 18.5042 28.8837 18.5484C 32.5302 18.5926 34.8286 20.4937 35.5579 24.0525C 35.8452 25.3125 35.9115 26.5946 36.0662 27.8766ZM 81.8352 18.5705C 80.5534 14.9896 78.7633 11.8065 76.0229 9.22024C 75.824 9.0434 75.3599 8.99919 75.0726 9.08761C 73.3046 9.70654 71.5808 10.4139 69.8128 11.0107C 69.194 11.2097 69.1056 11.5191 69.2382 12.0718C 69.4813 13.1107 69.7244 14.1496 69.9233 15.1885C 70.3211 17.2443 70.6968 19.2779 71.0946 21.3336C 72.7079 21.2894 72.7742 21.2894 72.6637 19.7421C 72.5974 18.7916 72.951 18.5484 73.8571 18.5705C 76.4428 18.5926 79.0506 18.5705 81.8352 18.5705ZM 24.9279 28.0093C 26.5191 28.0093 27.9114 28.0093 29.3036 28.0093C 32.3976 28.0093 32.3976 28.0093 31.8893 24.8925C 31.5799 23.0578 30.5854 21.8863 28.9942 21.7315C 27.8672 21.621 26.718 21.6652 25.5688 21.7094C 25.3478 21.7094 24.95 22.041 24.9279 22.2399C 24.9058 24.1188 24.9279 25.9756 24.9279 28.0093ZM 83.5811 28.9598C 82.5645 29.1808 81.9236 29.4019 81.2827 29.4461C 79.9346 29.5345 78.5644 29.5566 77.2163 29.5566C 76.5533 29.5566 76.3102 29.7997 76.3323 30.4629C 76.3765 31.6344 76.3544 32.806 76.3323 33.9996C 76.3102 34.5965 76.5312 34.8396 77.1058 34.9723C 78.5423 35.2817 79.9567 35.7017 81.3932 35.967C 81.6805 36.0333 82.2993 35.7017 82.3435 35.4807C 82.8076 33.3807 83.1612 31.2587 83.5811 28.9598ZM 24.9058 12.0718C 29.8119 8.26974 35.2485 6.14768 40.7293 4.09194C 40.1768 3.93721 39.6906 3.93721 39.2044 4.02563C 38.0773 4.22457 36.9502 4.3793 35.8452 4.66666C 31.9335 5.70559 28.044 6.78872 24.1544 7.89396C 23.8229 7.98237 23.2925 8.5792 23.3588 8.75604C 23.7787 9.83917 24.3312 10.9002 24.9058 12.0718ZM 65.1276 52.4571C 68.9951 51.5508 72.3985 49.694 75.5588 46.732C 74.0118 46.0688 72.73 45.4499 71.4261 44.9415C 69.0614 44.0352 69.1498 44.1236 68.1774 46.4225C 67.3155 48.5004 66.1663 50.4456 65.1276 52.4571ZM 55.4921 52.4129C 54.4534 50.3129 53.2158 48.3898 52.4865 46.2678C 51.6467 43.8584 51.9561 44.1015 49.5693 44.8531C 48.1328 45.3173 46.7847 46.0246 45.1935 46.7099C 48.3759 49.6498 51.713 51.5508 55.4921 52.4129ZM 23.845 47.3951C 24.1765 47.5941 24.2649 47.6604 24.3533 47.7046C 29.3258 49.473 34.4529 50.6445 39.6243 51.5508C 39.8895 51.595 40.1989 51.4182 40.4641 51.3298C 40.2431 51.1308 40.0663 50.8656 39.8232 50.755C 36.906 49.5614 33.9225 48.4782 31.0495 47.1741C 29.2373 46.3341 27.5578 45.1846 25.6572 44.0794C 25.0605 45.2067 24.4859 46.2678 23.845 47.3951ZM 80.7302 51.6613C 81.0175 51.595 81.1722 51.5729 81.3048 51.5287C 85.7248 50.4677 90.1668 49.473 94.5647 48.3014C 97.1504 47.6162 97.1283 47.4172 95.6918 45.0962C 95.2056 44.3226 94.8078 44.0794 93.968 44.6762C 92.9735 45.4057 91.9348 46.1573 90.7856 46.6436C 87.4928 48.0804 84.1557 49.3845 80.8407 50.7771C 80.6197 50.8656 80.4429 51.1087 80.2661 51.2855C 80.465 51.4403 80.6418 51.5729 80.7302 51.6613ZM 75.2715 8.38026C 72.1112 5.61717 68.9509 3.76037 65.216 3.05302C 66.4978 5.55085 67.7575 8.00448 69.0835 10.6349C 71.0062 9.92759 73.0173 9.19814 75.2715 8.38026ZM 55.5805 3.00881C 52.0003 3.84879 48.7295 5.50664 45.6355 8.38026C 47.9118 9.19814 49.9008 9.92759 51.7351 10.5907C 53.0611 7.96027 54.2987 5.52875 55.5805 3.00881ZM 80.2219 3.893C 80.1777 4.04773 80.1335 4.18036 80.0893 4.33509C 85.327 5.97084 90.2995 8.13711 95.0067 11.3423C 95.3824 10.436 95.6918 9.68444 96.0012 8.95498C 96.3548 8.13711 96.1559 7.67291 95.2277 7.42976C 91.0287 6.36873 86.8298 5.26349 82.6308 4.20247C 81.8573 4.02563 81.0175 4.00352 80.2219 3.893ZM 50.4533 22.4168C 50.4533 24.0967 50.4091 25.6441 50.4975 27.1693C 50.5196 27.4566 51.0058 27.943 51.2931 27.9651C 52.5086 28.0535 53.7241 28.0535 54.9396 27.9872C 55.2048 27.9651 55.6247 27.5451 55.6468 27.3019C 55.7131 26.0198 55.7131 24.7378 55.6689 23.4336C 55.6689 23.1904 55.3595 22.7925 55.1606 22.7704C 53.6357 22.6157 52.1108 22.5273 50.4533 22.4168ZM 76.3544 26.3735C 77.8351 26.3735 79.1169 26.484 80.3987 26.3514C 81.6584 26.1967 82.1667 25.3346 82.1446 23.9641C 82.1225 22.7041 81.6142 22.0189 80.3766 21.842C 79.2495 21.6873 78.1003 21.7094 76.9732 21.7094C 76.7743 21.7094 76.3986 22.0852 76.3986 22.2841C 76.3323 23.6325 76.3544 24.9809 76.3544 26.3735ZM 42.2763 21.0684C 40.9061 20.7368 39.7127 20.4494 38.232 20.0737C 37.9447 22.4389 37.6574 24.6936 37.4143 26.9261C 37.3701 27.2577 37.6795 27.943 37.79 27.9208C 38.5193 27.8545 39.5359 28.4735 39.9558 27.4788C 40.7956 25.4672 41.4807 23.3673 42.2763 21.0684ZM 59.3596 33.3144C 61.459 33.3144 63.4259 33.3144 65.4591 33.3144C 65.4591 32.386 65.6138 31.4797 65.4149 30.6618C 65.2823 30.1313 64.7077 29.3355 64.2436 29.2913C 62.6303 29.1366 60.9949 29.225 59.3596 29.225C 59.3596 30.5955 59.3596 31.8776 59.3596 33.3144ZM 31.8451 28.7166C 29.834 28.7166 27.8893 28.7608 25.9445 28.6945C 25.0826 28.6724 24.9058 29.0261 24.9058 29.7997C 24.8616 32.607 24.8395 32.607 27.6462 32.5849C 30.2539 32.5628 31.381 31.5681 31.8451 28.7166ZM 68.0006 52.5013C 71.7797 52.2361 75.4925 51.6613 79.4926 50.4014C 78.3434 49.2961 77.4152 48.3677 76.4428 47.5277C 76.2881 47.3951 75.7798 47.572 75.5367 47.7267C 74.4538 48.4782 73.4593 49.3624 72.3543 50.0698C 70.962 50.954 69.4592 51.7055 68.0006 52.5013ZM 52.6854 52.7887C 52.7296 52.656 52.7738 52.5234 52.818 52.3908C 49.9671 51.1971 47.3151 49.6719 45.0609 47.5277C 44.9283 47.4172 44.5968 47.3288 44.4642 47.4172C 43.2708 48.1467 42.2321 49.0088 41.5912 50.7108C 45.3924 51.4182 49.0389 52.1034 52.6854 52.7887ZM 68.1332 2.67724C 68.1111 2.78776 68.089 2.87618 68.0669 2.9867C 68.1111 3.03091 68.1553 3.11933 68.1995 3.14144C 70.8073 4.18036 73.1941 5.61717 75.2936 7.49607C 75.4483 7.6287 75.824 7.76133 75.9787 7.67291C 77.1058 6.96556 78.1887 6.16979 79.0064 4.66666C 75.2273 3.98142 71.6913 3.31828 68.1332 2.67724ZM 52.7296 2.92039C 52.7296 2.83197 52.7075 2.76566 52.7075 2.67724C 49.1494 3.31828 45.5692 3.95931 42.0111 4.60035C 41.9669 4.77719 41.9227 4.93192 41.8564 5.10876C 42.8288 5.94874 43.7791 6.81082 44.7957 7.60659C 44.9283 7.71712 45.3924 7.54028 45.6355 7.38555C 46.409 6.83293 47.0941 6.16979 47.9118 5.66138C 49.503 4.71087 51.1163 3.82668 52.7296 2.92039ZM 59.3596 25.9977C 61.0391 25.9977 62.6082 26.0862 64.1773 25.9756C 65.6138 25.8651 66.321 24.6272 65.8569 23.2567C 65.7906 23.0357 65.5033 22.7262 65.3044 22.7262C 63.3375 22.682 61.3706 22.7041 59.3596 22.7041C 59.3596 23.9641 59.3596 24.9146 59.3596 25.9977ZM 51.1163 28.7387C 51.6688 30.3303 52.1329 31.7892 52.6854 33.2039C 52.8622 33.646 55.2711 33.646 55.5584 33.2481C 55.6468 33.1155 55.6689 32.8944 55.6689 32.7176C 55.6689 31.6123 55.691 30.5071 55.6468 29.424C 55.6247 29.2029 55.3153 28.7829 55.1385 28.7829C 53.8567 28.7166 52.5749 28.7387 51.1163 28.7387ZM 48.8179 33.9996C 48.4643 32.1871 48.4643 32.1871 46.8731 32.2092C 45.5471 32.2092 44.2211 32.1871 42.9172 32.2313C 42.6299 32.2313 42.1658 32.3639 42.0774 32.5628C 41.7238 33.447 41.4807 34.3975 41.1713 35.4143C 43.8233 34.928 46.2985 34.4638 48.8179 33.9996ZM 72.5974 27.9651C 72.5974 25.9093 72.5974 23.9862 72.5974 21.7094C 71.9565 22.0852 71.1388 22.3505 71.1388 22.6157C 71.1167 24.3841 71.2493 26.1746 71.3598 27.9651C 71.8239 27.9651 72.1775 27.9651 72.5974 27.9651ZM 95.1835 27.9872C 94.6531 26.3072 94.1669 24.782 93.7028 23.2567C 93.5923 23.2567 93.5039 23.2789 93.3934 23.2789C 92.8851 24.8041 92.3989 26.3293 91.8685 27.9651C 93.0398 27.9872 93.968 27.9872 95.1835 27.9872ZM 43.6244 27.943C 44.7736 27.943 45.7239 27.943 46.851 27.943C 46.3648 26.3293 45.9007 24.8041 45.4587 23.301C 45.3703 23.301 45.2598 23.2789 45.1714 23.2789C 44.6631 24.782 44.1548 26.3072 43.6244 27.943ZM 72.6858 33.9775C 72.6858 32.4302 72.7079 30.8608 72.6416 29.2913C 72.6416 29.1145 72.1333 28.805 71.8902 28.805C 71.6692 28.805 71.3156 29.1808 71.2714 29.424C 71.1388 30.485 71.1388 31.546 71.0283 32.607C 70.8957 33.9554 71.0504 34.1323 72.6858 33.9775ZM 70.299 22.3283C 70.1443 22.2841 69.9675 22.262 69.8128 22.2178C 69.7465 24.3178 69.5697 26.3735 67.4039 27.523C 67.4702 27.6335 67.5144 27.7661 67.5807 27.8766C 68.5531 27.9208 69.5034 27.9872 70.5642 28.0314C 70.4758 25.9756 70.3874 24.163 70.299 22.3283ZM 69.2603 28.805C 69.2603 30.3082 69.2824 31.6344 69.2603 32.9828C 69.2382 33.7123 69.5697 33.8891 70.3653 33.6681C 70.3653 32.0765 70.3653 30.4408 70.3653 28.7829C 69.857 28.805 69.4371 28.805 69.2603 28.805ZM 39.4917 28.7387C 38.9171 28.7387 38.4972 28.6724 38.1215 28.7608C 37.8784 28.8271 37.4585 29.1145 37.4806 29.2913C 37.5469 30.3745 37.7237 31.4797 37.8784 32.5628C 37.9668 32.5628 38.0773 32.5628 38.1657 32.5628C 38.5635 31.3471 38.9834 30.1534 39.4917 28.7387ZM 59.4922 21.7757C 59.4922 21.842 59.4922 21.9084 59.4701 21.9747C 61.0612 21.9747 62.6303 21.9747 64.2215 21.9747C 64.2215 21.9084 64.2215 21.842 64.2215 21.7757C 62.6524 21.7757 61.0833 21.7757 59.4922 21.7757ZM 75.8682 52.1255C 75.8682 52.214 75.8903 52.2803 75.8903 52.3687C 77.1279 52.1697 78.3655 51.9708 79.6252 51.794C 79.6031 51.6171 79.5589 51.4624 79.5368 51.2855C 78.2992 51.5508 77.0837 51.8382 75.8682 52.1255ZM 44.8399 52.3466C 44.862 52.2582 44.9062 52.1918 44.9283 52.1034C 43.7128 51.8161 42.4973 51.5287 41.2818 51.2634C 41.2376 51.4403 41.2155 51.6171 41.1713 51.794C 42.4089 51.9708 43.6244 52.1697 44.8399 52.3466ZM 46.9394 29.0482C 46.9394 28.9819 46.9394 28.9156 46.9394 28.8492C 45.8123 28.8492 44.6852 28.8492 43.536 28.8492C 43.536 28.9156 43.536 28.9819 43.536 29.0482C 44.6852 29.0482 45.8123 29.0482 46.9394 29.0482ZM 91.7359 28.8713C 91.7359 28.9156 91.7359 28.9819 91.7359 29.0261C 92.9293 29.0261 94.1227 29.0261 95.294 29.0261C 95.294 28.9819 95.294 28.9156 95.294 28.8713C 94.1006 28.8713 92.9293 28.8713 91.7359 28.8713Z"/>
</defs>
</svg>
