<?xml version="1.0" encoding="utf-8"?>
<!-- Generator: Adobe Illustrator 22.1.0, SVG Export Plug-In . SVG Version: 6.00 Build 0)  -->
<svg version="1.1" id="Layer_1" xmlns="http://www.w3.org/2000/svg" xmlns:xlink="http://www.w3.org/1999/xlink" x="0px" y="0px"
	 viewBox="0 0 31.938 30" style="enable-background:new 0 0 31.938 30;" xml:space="preserve">
<g>
	<g>
		<path d="M31.621,9.908c-0.116-0.018-0.23,0.044-0.278,0.151l-0.357,0.791c-0.136-1.04-0.387-2.713-0.72-3.811
			c-0.507-1.69-1.579-2.782-1.625-2.828c-0.082-0.083-0.209-0.101-0.311-0.045c-0.102,0.056-0.155,0.173-0.13,0.286l0.278,1.251
			c-0.668-0.698-1.741-1.699-2.804-2.188c-0.255-0.124-0.515-0.238-0.742-0.337C22.623,1.128,19.664,0,16.593,0
			c-4.325,0-8.266,2.166-10.6,5.81c-0.22-0.177-0.528-0.488-0.704-0.935c-0.321-0.786-0.483-1.67-0.485-1.679
			C4.787,3.101,4.719,3.024,4.628,2.994c-0.091-0.03-0.192-0.007-0.262,0.06c-1.923,1.844-1.732,4.719-1.66,5.371
			c-0.238,0.255-0.912,1.009-1.593,2.098c-0.845,1.353-1.101,3.718-1.111,3.818c-0.012,0.112,0.049,0.218,0.151,0.265
			c0.102,0.047,0.222,0.024,0.3-0.058l0.562-0.595c-0.061,0.228-0.123,0.487-0.18,0.778c-0.254,1.254-0.179,3.199-0.176,3.281
			c0.005,0.121,0.092,0.222,0.21,0.246c0.118,0.025,0.237-0.035,0.289-0.145l0.331-0.701c0.244,1.707,1.182,5.339,4.776,8.685
			C8.926,28.578,12.629,30,16.424,30h0.001c3.683,0,7.16-1.317,10.055-3.809c3.423-2.949,4.698-7.161,5.165-10.174
			c0.504-3.254,0.209-5.776,0.196-5.882C31.827,10.019,31.737,9.926,31.621,9.908L31.621,9.908z M25.776,10.003
			c0.004,0.005,0.359,0.47,0.437,1.662c0.053,0.892-0.13,2.318-0.245,3.098l-0.697-0.809c-0.075-0.087-0.198-0.115-0.304-0.068
			c-0.105,0.046-0.168,0.157-0.154,0.271c0.002,0.021,0.24,2.035-0.16,3.787c-0.19,0.823-0.486,1.415-0.74,1.805l0.098-1.32
			c0.009-0.126-0.074-0.241-0.197-0.273c-0.123-0.032-0.251,0.03-0.303,0.146c-0.012,0.026-1.22,2.621-4.532,3.649
			c-0.463,0.143-0.949,0.215-1.447,0.215c-1.765,0-3.369-0.9-4.278-1.533c0.078,0.004,0.156,0.006,0.233,0.006
			c1.302,0,2.303-0.561,3.108-1.011c0.212-0.119,0.411-0.231,0.603-0.325c1.157-0.582,1.694-0.63,2.107-0.63
			c0.218,0,0.387-0.128,0.439-0.333c0.129-0.503-0.476-1.4-1.223-1.811c-0.37-0.202-0.766-0.295-1.247-0.295
			c-0.763,0-1.71,0.241-3.066,0.608c-0.249,0.066-0.495,0.1-0.731,0.1c-0.831,0-1.381-0.402-1.695-0.739
			c-0.423-0.454-0.664-1.053-0.629-1.565c0.016-0.233,0.107-0.471,0.662-0.471c0.492,0,1.04,0.203,1.045,0.205
			c0.03,0.011,0.061,0.016,0.092,0.016h0.002c0.145,0,0.262-0.117,0.262-0.262c0-0.014-0.001-0.028-0.003-0.041L13.14,11.79
			c0.265-0.168,0.897-0.579,1.505-1.021c1.471-1.07,1.669-1.479,1.511-1.79c-0.209-0.423-0.758-0.492-1.394-0.571
			c-0.363-0.045-0.776-0.097-1.148-0.22c-0.776-0.258-1.286-0.927-1.403-1.092c-0.024-0.138-0.082-0.602,0.146-0.999
			c0.246-0.433,1.099-1.104,1.407-1.326c0.088-0.063,0.128-0.174,0.1-0.279c-0.028-0.105-0.118-0.182-0.225-0.194
			c-0.027-0.003-0.809-0.081-2.086,0.342C10.513,4.99,9.706,5.555,9.429,5.764c-0.12-0.023-0.325-0.056-0.664-0.09
			c1.992-2.25,4.818-3.531,7.828-3.531c2.209,0,4.297,0.672,6.075,1.95l-1.76,0.295c-0.12,0.02-0.21,0.12-0.218,0.24
			c-0.008,0.121,0.068,0.232,0.183,0.268c0.023,0.007,2.367,0.748,4.116,2.096c0.389,0.305,0.745,0.699,1.058,1.173
			c0.292,0.625,0.521,1.271,0.682,1.925l-0.588-0.457c-0.104-0.081-0.252-0.071-0.345,0.024
			C25.702,9.749,25.694,9.899,25.776,10.003L25.776,10.003z M25.776,10.003"/>
	</g>
</g>
</svg>
