<?xml version="1.0" encoding="utf-8"?>
<!-- Generator: Adobe Illustrator 22.0.1, SVG Export Plug-In . SVG Version: 6.00 Build 0)  -->
<svg version="1.1" id="Layer_1" xmlns="http://www.w3.org/2000/svg" xmlns:xlink="http://www.w3.org/1999/xlink" x="0px" y="0px"
	 viewBox="0 0 138.042 27" style="enable-background:new 0 0 138.042 27;" xml:space="preserve">
<style type="text/css">
	.st0{fill:#9DE6EB;}
</style>
<title>Lock</title>
<desc>Created using Figma</desc>
<path class="st0" d="M11,12H6.5V8c0-2.485,2.015-4.5,4.5-4.5V0C6.582,0,3,3.582,3,8v4H2c-1.105,0-2,0.895-2,2v11
	c0,1.105,0.895,2,2,2h9V12z"/>
<path class="st0" d="M11,12h4.5V8c0-2.485-2.015-4.5-4.5-4.5V0c4.418,0,8,3.582,8,8v4h1c1.105,0,2,0.895,2,2v11c0,1.105-0.895,2-2,2
	h-9V12z"/>
<path class="st0" d="M40,12h-4.5V8c0-2.485,2.015-4.5,4.5-4.5V0c-4.418,0-8,3.582-8,8v4h-1c-1.105,0-2,0.895-2,2v11
	c0,1.105,0.895,2,2,2h9V12z"/>
<path class="st0" d="M40,12h4.5V8c0-2.485-2.015-4.5-4.5-4.5V0c4.418,0,8,3.582,8,8v4h1c1.105,0,2,0.895,2,2v11c0,1.105-0.895,2-2,2
	h-9V12z"/>
<path class="st0" d="M69,12h-4.5V8c0-2.485,2.015-4.5,4.5-4.5V0c-4.418,0-8,3.582-8,8v4h-1c-1.105,0-2,0.895-2,2v11
	c0,1.105,0.895,2,2,2h9V12z"/>
<path class="st0" d="M69,12h4.5V8c0-2.485-2.015-4.5-4.5-4.5V0c4.418,0,8,3.582,8,8v4h1c1.105,0,2,0.895,2,2v11c0,1.105-0.895,2-2,2
	h-9V12z"/>
<path class="st0" d="M98,12h-4.5V8c0-2.485,2.015-4.5,4.5-4.5V0c-4.418,0-8,3.582-8,8v4h-1c-1.105,0-2,0.895-2,2v11
	c0,1.105,0.895,2,2,2h9V12z"/>
<path class="st0" d="M98,12h4.5V8c0-2.485-2.015-4.5-4.5-4.5V0c4.418,0,8,3.582,8,8v4h1c1.105,0,2,0.895,2,2v11c0,1.105-0.895,2-2,2
	h-9V12z"/>
<path class="st0" d="M127,12h-4.5V8c0-2.485,2.015-4.5,4.5-4.5V0c-4.418,0-8,3.582-8,8v4h-1c-1.105,0-2,0.895-2,2v11
	c0,1.105,0.895,2,2,2h9V12z"/>
<path class="st0" d="M127,12h4.5V8c0-2.485-2.015-4.5-4.5-4.5V0c4.418,0,8,3.582,8,8v4h1c1.105,0,2,0.895,2,2v11
	c0,1.105-0.895,2-2,2h-9V12z"/>
</svg>
