<?xml version="1.0" encoding="utf-8"?>
<!-- Generator: Adobe Illustrator 22.1.0, SVG Export Plug-In . SVG Version: 6.00 Build 0)  -->
<svg version="1.1" xmlns="http://www.w3.org/2000/svg" xmlns:xlink="http://www.w3.org/1999/xlink" x="0px" y="0px"
	 viewBox="0 0 54 62" style="enable-background:new 0 0 54 62;" xml:space="preserve">
<style type="text/css">
	.st0{fill:#FFFFFF;}
	.st1{fill:none;}
	.st2{fill:#1D3252;}
</style>
<g id="Layer_1">
	<title>Shield</title>
	<desc>Created using Figma</desc>
</g>
<g id="Layer_2">
	<path class="st0" d="M8.5,18.7c-0.4,14.6,7.4,28.9,17.8,32.6c0-9.2,0-30.5,0-41.2C21.3,13.5,15.5,16.3,8.5,18.7z"/>
	<path class="st1" d="M26.5,3.5C19.8,8.1,12.3,11.7,3,14.9c-0.7,20.7,8,36.6,23.5,42.8C41.9,51.5,50.6,35.6,50,14.9
		C40.7,11.7,33.1,8.1,26.5,3.5z"/>
	<g>
		<path class="st2" d="M46.8,16.3c-7.9-2.6-14.3-5.7-19.8-9.6c-0.2-0.1-0.3-0.2-0.5-0.2S26.1,6.6,26,6.7c-5.5,3.9-11.9,7-19.8,9.6
			c-0.4,0.1-0.6,0.4-0.6,0.8C4.5,34,13.5,50.5,26.2,54.4c0.1,0.1,0.2,0.1,0.3,0.1c0.1,0,0.2,0,0.4-0.1C39,50.5,48.5,34,47.4,17.1
			C47.4,16.7,47.2,16.4,46.8,16.3z M26.3,51.3c-10.5-3.8-18.2-18-17.8-32.6c7-2.4,12.7-5.2,17.8-8.6C26.3,20.8,26.3,42.1,26.3,51.3z
			"/>
		<path class="st2" d="M52.9,13.3c0-0.4-0.2-0.7-0.6-0.8C42.1,9.2,34.1,5.3,27,0.2C26.9,0.1,26.7,0,26.5,0S26.1,0.1,26,0.2
			c-7.1,5.1-15.1,9-25.3,12.3c-0.4,0.1-0.6,0.4-0.6,0.8c-1.2,23.2,8.5,40.9,26.1,47.5c0.1,0.1,0.2,0.1,0.3,0.1
			c0.1,0,0.2-0.1,0.2-0.1C44.3,54.2,54.1,36.4,52.9,13.3z M26.5,57.7C11,51.5,2.4,35.6,3,14.9c9.3-3.2,16.8-6.8,23.5-11.4
			c6.6,4.6,14.2,8.2,23.5,11.4C50.6,35.6,41.9,51.5,26.5,57.7z"/>
	</g>
</g>
</svg>
