<svg width="24" height="25" viewBox="0 0 24 25" version="1.1" xmlns="http://www.w3.org/2000/svg" xmlns:xlink="http://www.w3.org/1999/xlink">
<g id="Canvas" fill="none">
<path id="&#239;&#143;&#173;" d="M 23.25 6C 23.25 5.53125 23.1094 5.10938 22.875 4.73438C 22.5938 4.35938 22.2656 4.125 21.8438 3.9375L 12.8438 0.1875C 12.2812 -0.046875 11.7188 -0.046875 11.1562 0.1875L 2.15625 3.9375C 1.6875 4.125 1.35938 4.35938 1.125 4.73438C 0.84375 5.10938 0.75 5.53125 0.75 6C 0.75 8.95312 1.26562 11.7188 2.34375 14.2969C 3.28125 16.6406 4.54688 18.6562 6.23438 20.3438C 7.73438 21.9375 9.375 23.1094 11.1562 23.8125C 11.7188 24.0938 12.2812 24.0938 12.8438 23.8125C 14.3906 23.2031 15.8906 22.1719 17.3438 20.7656C 19.0312 19.0781 20.4375 17.1094 21.4688 14.8594C 22.6406 12.1875 23.25 9.23438 23.25 6ZM 12 20.9062L 12 3.04688L 20.25 6.51562C 20.1562 9.89062 19.3125 12.9375 17.7188 15.5625C 16.2188 18 14.3438 19.7812 12 20.9062Z" fill="#CAD5D9"/>
</g>
</svg>
