<?xml version="1.0" encoding="utf-8"?>
<!-- Generator: Adobe Illustrator 22.1.0, SVG Export Plug-In . SVG Version: 6.00 Build 0)  -->
<svg version="1.1" id="Layer_1" xmlns="http://www.w3.org/2000/svg" xmlns:xlink="http://www.w3.org/1999/xlink" x="0px" y="0px"
	 viewBox="0 0 39.3 39.3" style="enable-background:new 0 0 39.3 39.3;" xml:space="preserve">
<style type="text/css">
	.st0{fill:#1D3252;}
</style>
<g>
	<path class="st0" d="M10.1,22.1h6.2c0.6,0,1,0.4,1,1v5.8c0,0.6,0.4,1,1,1h3.1c0.6,0,1-0.4,1-1v-5.8c0-0.6,0.4-1,1-1h5.8
		c0.6,0,1-0.4,1-1V18c0-0.6-0.4-1-1-1h-5.8c-0.6,0-1-0.4-1-1V9.9c0-0.6-0.4-1-1-1h-3.1c-0.6,0-1,0.4-1,1V16c0,0.6-0.4,1-1,1h-6.2
		c-0.6,0-1,0.4-1,1v3.1C9.1,21.7,9.6,22.1,10.1,22.1z"/>
	<path class="st0" d="M36.3,0H3H0v3v33.3v3h3h33.3h3v-3V3V0H36.3z M36.3,36.3H3V3h33.3V36.3z"/>
</g>
</svg>
