<?xml version="1.0" encoding="utf-8"?>
<!-- Generator: Adobe Illustrator 22.1.0, SVG Export Plug-In . SVG Version: 6.00 Build 0)  -->
<svg version="1.1" id="Layer_3" xmlns="http://www.w3.org/2000/svg" xmlns:xlink="http://www.w3.org/1999/xlink" x="0px" y="0px"
	 viewBox="0 0 100 100" style="enable-background:new 0 0 100 100;" xml:space="preserve">
<style type="text/css">
	.st0{fill:#CAD5D9;}
	.st1{fill:#AFCA79;}
</style>
<g>
	<g>
		<g>
			<path class="st0" d="M50,0C22.4,0,0,22.4,0,50s22.4,50,50,50s50-22.4,50-50S77.6,0,50,0z M83.2,83.2l-4.9-4.9l-2.1,2.1l4.9,4.9
				C72.7,92.6,61.9,97,50,97c-13,0-24.7-5.3-33.2-13.8l4.9-4.9l-2.1-2.1L14.7,81C7.4,72.7,3,61.9,3,50h7v-3H3.1
				c0.7-11.8,5.8-22.4,13.7-30.2l4.9,4.9l2.1-2.1L19,14.7C27.3,7.4,38.1,3,50,3v7h3V3.1c11.8,0.7,22.4,5.8,30.2,13.7l-4.9,4.9
				l2.1,2.1l4.9-4.9C92.6,27.3,97,38.1,97,50h-7v3h6.9C96.1,64.8,91.1,75.4,83.2,83.2z"/>
		</g>
	</g>
</g>
<path class="st1" d="M58.6,47.2c-0.7-2.3-2.3-4.1-4.5-5.2c-1.7-0.9-3.6-1.1-5.4-0.9L38.1,13.9L35.3,15l10.5,27
	c-1.6,0.9-3,2.2-3.9,3.9c-1.1,2.1-1.3,4.6-0.5,6.9c1.2,3.8,4.8,6.2,8.6,6.2c0.9,0,1.9-0.1,2.8-0.4c2.3-0.7,4.1-2.3,5.2-4.5
	C59.1,51.9,59.3,49.5,58.6,47.2z M55.4,52.7c-0.7,1.4-2,2.5-3.5,3c-3.1,1-6.5-0.7-7.6-3.8c-0.5-1.5-0.4-3.1,0.4-4.6
	c0.7-1.4,2-2.5,3.5-3c0.6-0.2,1.2-0.3,1.9-0.3c0.9,0,1.9,0.2,2.7,0.7c1.4,0.7,2.5,2,3,3.5C56.2,49.7,56.1,51.3,55.4,52.7z"/>
</svg>
