<?xml version="1.0" encoding="utf-8"?>
<!-- Generator: Adobe Illustrator 22.1.0, SVG Export Plug-In . SVG Version: 6.00 Build 0)  -->
<svg version="1.1" id="Layer_2_1_" xmlns="http://www.w3.org/2000/svg" xmlns:xlink="http://www.w3.org/1999/xlink" x="0px" y="0px"
	 viewBox="0 0 18 24" style="enable-background:new 0 0 18 24;" xml:space="preserve">
<style type="text/css">
	.st0{fill:#CAD5D9;}
</style>
<g>
	<path class="st0" d="M18,6.75c0,0.81-0.23,1.55-0.7,2.2s-1.08,1.11-1.83,1.36c-0.03,1.31-0.38,2.38-1.03,3.19
		c-0.59,0.72-1.44,1.23-2.53,1.55c-0.66,0.19-1.66,0.34-3,0.47H8.86c-0.78,0.09-1.34,0.16-1.69,0.19c-0.59,0.13-1.05,0.27-1.36,0.42
		s-0.55,0.36-0.7,0.61c0.72,0.28,1.3,0.74,1.73,1.38s0.66,1.35,0.66,2.13c0,1.03-0.37,1.91-1.1,2.65S4.78,24,3.75,24
		s-1.91-0.37-2.65-1.1S0,21.28,0,20.25c0-0.84,0.24-1.59,0.73-2.25s1.12-1.09,1.9-1.31V7.31C1.84,7.09,1.21,6.66,0.73,6
		S0,4.59,0,3.75C0,2.72,0.37,1.84,1.1,1.1S2.72,0,3.75,0S5.66,0.37,6.4,1.1s1.1,1.62,1.1,2.65C7.5,4.59,7.26,5.34,6.77,6
		s-1.12,1.09-1.9,1.31v6.75c0.5-0.22,1.11-0.39,1.83-0.52c0.44-0.09,1.09-0.19,1.97-0.28c1.13-0.09,1.92-0.19,2.39-0.28
		c0.75-0.19,1.29-0.48,1.62-0.89s0.51-0.98,0.54-1.73c-0.81-0.25-1.47-0.7-1.97-1.36S10.5,7.59,10.5,6.75c0-1.03,0.37-1.91,1.1-2.65
		S13.22,3,14.25,3s1.91,0.37,2.65,1.1S18,5.72,18,6.75z M3.75,2.75c-0.29,0-0.53,0.09-0.72,0.28S2.75,3.46,2.75,3.75
		s0.09,0.53,0.28,0.72s0.43,0.28,0.72,0.28s0.53-0.09,0.72-0.28s0.28-0.43,0.28-0.72S4.66,3.22,4.47,3.03S4.04,2.75,3.75,2.75z
		 M3.75,21.25c0.29,0,0.53-0.09,0.72-0.28s0.28-0.43,0.28-0.72s-0.09-0.53-0.28-0.72s-0.43-0.28-0.72-0.28s-0.53,0.09-0.72,0.28
		s-0.28,0.43-0.28,0.72s0.09,0.53,0.28,0.72S3.46,21.25,3.75,21.25z M14.25,5.75c-0.29,0-0.53,0.09-0.72,0.28s-0.28,0.43-0.28,0.72
		s0.09,0.53,0.28,0.72s0.43,0.28,0.72,0.28s0.53-0.09,0.72-0.28s0.28-0.43,0.28-0.72s-0.09-0.53-0.28-0.72S14.54,5.75,14.25,5.75z"
		/>
</g>
</svg>
