<?xml version="1.0" encoding="utf-8"?>
<!-- Generator: Adobe Illustrator 22.1.0, SVG Export Plug-In . SVG Version: 6.00 Build 0)  -->
<svg version="1.1" id="Layer_2" xmlns="http://www.w3.org/2000/svg" xmlns:xlink="http://www.w3.org/1999/xlink" x="0px" y="0px"
	 viewBox="0 0 39 62" style="enable-background:new 0 0 39 62;" xml:space="preserve">
<style type="text/css">
	.st0{fill:#1D3252;}
</style>
<path class="st0" d="M21.5,11V0H18v10.9C8.1,11.7,0.3,20,0.3,30.1v5.4c0,1.1,0.9,2,2,2h34.5c1.1,0,2-0.9,2-2v-5.4
	C38.7,20.1,31.2,12,21.5,11z M35.7,34.5H3.3v-4.4c0-9,7.3-16.2,16.2-16.2c9,0,16.2,7.3,16.2,16.2V34.5z"/>
<g>
	<rect x="4.4" y="44" class="st0" width="3" height="16"/>
	<rect x="18" y="44" class="st0" width="3" height="16"/>
	<rect x="31.6" y="44" class="st0" width="3" height="16"/>
</g>
</svg>
