<svg width="100" height="100" viewBox="0 0 100 100" version="1.1" xmlns="http://www.w3.org/2000/svg" xmlns:xlink="http://www.w3.org/1999/xlink">
<title>Crash</title>
<desc>Created using Figma</desc>
<g id="Canvas" transform="translate(-885 -1483)">
<g id="Crash">
<g id="Vector" opacity="0.15">
<use xlink:href="#path0_fill" transform="translate(935 1483)" fill="#FF9F74"/>
</g>
<g id="Vector" opacity="0.15">
<use xlink:href="#path1_fill" transform="translate(885 1533)" fill="#FF9F74"/>
</g>
<g id="Vector">
<use xlink:href="#path2_fill" transform="translate(885 1483)" fill="#FF9F74"/>
</g>
<g id="Vector">
<use xlink:href="#path3_fill" transform="translate(933.5 1483)" fill="#FF9F74"/>
</g>
<g id="Vector">
<use xlink:href="#path4_fill" transform="translate(885 1531.5)" fill="#FF9F74"/>
</g>
<g id="Group">
<g id="Vector">
<use xlink:href="#path5_fill" transform="translate(936.3 1483)" fill="#FF9F74"/>
</g>
<g id="Vector">
<use xlink:href="#path6_fill" transform="translate(952 1486)" fill="#FF9F74"/>
</g>
<g id="Vector">
<use xlink:href="#path7_fill" transform="translate(941 1485.2)" fill="#FF9F74"/>
</g>
<g id="Vector">
<use xlink:href="#path8_fill" transform="translate(935.6 1490.7)" fill="#FF9F74"/>
</g>
<g id="Vector">
<use xlink:href="#path9_fill" transform="translate(941 1496.1)" fill="#FF9F74"/>
</g>
<g id="Vector">
<use xlink:href="#path10_fill" transform="translate(952 1496.1)" fill="#FF9F74"/>
</g>
<g id="Vector">
<use xlink:href="#path11_fill" transform="translate(962.9 1496.1)" fill="#FF9F74"/>
</g>
<g id="Vector">
<use xlink:href="#path12_fill" transform="translate(946.5 1501.6)" fill="#FF9F74"/>
</g>
<g id="Vector">
<use xlink:href="#path13_fill" transform="translate(946.5 1490.6)" fill="#FF9F74"/>
</g>
<g id="Vector">
<use xlink:href="#path14_fill" transform="translate(957.4 1490.6)" fill="#FF9F74"/>
</g>
<g id="Vector">
<use xlink:href="#path15_fill" transform="translate(946.5 1512.5)" fill="#FF9F74"/>
</g>
<g id="Vector">
<use xlink:href="#path16_fill" transform="translate(957.4 1512.5)" fill="#FF9F74"/>
</g>
<g id="Vector">
<use xlink:href="#path17_fill" transform="translate(935.6 1512.5)" fill="#FF9F74"/>
</g>
<g id="Vector">
<use xlink:href="#path18_fill" transform="translate(935.6 1501.6)" fill="#FF9F74"/>
</g>
<g id="Vector">
<use xlink:href="#path19_fill" transform="translate(952 1507)" fill="#FF9F74"/>
</g>
<g id="Vector">
<use xlink:href="#path20_fill" transform="translate(941 1507)" fill="#FF9F74"/>
</g>
<g id="Vector">
<use xlink:href="#path21_fill" transform="translate(957.4 1501.6)" fill="#FF9F74"/>
</g>
<g id="Vector">
<use xlink:href="#path22_fill" transform="translate(968.3 1501.6)" fill="#FF9F74"/>
</g>
<g id="Vector">
<use xlink:href="#path23_fill" transform="translate(962.9 1507)" fill="#FF9F74"/>
</g>
<g id="Vector">
<use xlink:href="#path24_fill" transform="translate(973.8 1507)" fill="#FF9F74"/>
</g>
<g id="Vector">
<use xlink:href="#path25_fill" transform="translate(979.2 1512.5)" fill="#FF9F74"/>
</g>
<g id="Vector">
<use xlink:href="#path26_fill" transform="translate(968.3 1512.5)" fill="#FF9F74"/>
</g>
<g id="Vector">
<use xlink:href="#path27_fill" transform="translate(941 1518)" fill="#FF9F74"/>
</g>
<g id="Vector">
<use xlink:href="#path28_fill" transform="translate(952 1518)" fill="#FF9F74"/>
</g>
<g id="Vector">
<use xlink:href="#path29_fill" transform="translate(962.9 1518)" fill="#FF9F74"/>
</g>
<g id="Vector">
<use xlink:href="#path30_fill" transform="translate(973.8 1518)" fill="#FF9F74"/>
</g>
<g id="Vector">
<use xlink:href="#path31_fill" transform="translate(946.5 1523.4)" fill="#FF9F74"/>
</g>
<g id="Vector">
<use xlink:href="#path32_fill" transform="translate(935.6 1523.4)" fill="#FF9F74"/>
</g>
<g id="Vector">
<use xlink:href="#path33_fill" transform="translate(952 1528.9)" fill="#FF9F74"/>
</g>
<g id="Vector">
<use xlink:href="#path31_fill" transform="translate(941 1528.9)" fill="#FF9F74"/>
</g>
<g id="Vector">
<use xlink:href="#path34_fill" transform="translate(957.4 1523.4)" fill="#FF9F74"/>
</g>
<g id="Vector">
<use xlink:href="#path35_fill" transform="translate(968.3 1523.4)" fill="#FF9F74"/>
</g>
<g id="Vector">
<use xlink:href="#path34_fill" transform="translate(962.9 1528.9)" fill="#FF9F74"/>
</g>
<g id="Vector">
<use xlink:href="#path35_fill" transform="translate(973.8 1528.9)" fill="#FF9F74"/>
</g>
<g id="Vector">
<use xlink:href="#path36_fill" transform="translate(979.2 1523.4)" fill="#FF9F74"/>
</g>
<g id="Vector">
<use xlink:href="#path37_fill" transform="translate(984.7 1529.8)" fill="#FF9F74"/>
</g>
</g>
<g id="Group">
<g id="Vector">
<use xlink:href="#path38_fill" transform="translate(887.5 1539.1)" fill="#FF9F74"/>
</g>
<g id="Vector">
<use xlink:href="#path39_fill" transform="translate(898.4 1539.1)" fill="#FF9F74"/>
</g>
<g id="Vector">
<use xlink:href="#path40_fill" transform="translate(909.4 1539.1)" fill="#FF9F74"/>
</g>
<g id="Vector">
<use xlink:href="#path41_fill" transform="translate(885.1 1534.1)" fill="#FF9F74"/>
</g>
<g id="Vector">
<use xlink:href="#path42_fill" transform="translate(893 1533.6)" fill="#FF9F74"/>
</g>
<g id="Vector">
<use xlink:href="#path43_fill" transform="translate(903.9 1533.6)" fill="#FF9F74"/>
</g>
<g id="Vector">
<use xlink:href="#path44_fill" transform="translate(914.8 1533.6)" fill="#FF9F74"/>
</g>
<g id="Vector">
<use xlink:href="#path45_fill" transform="translate(925.7 1533.6)" fill="#FF9F74"/>
</g>
<g id="Vector">
<use xlink:href="#path46_fill" transform="translate(893 1555.5)" fill="#FF9F74"/>
</g>
<g id="Vector">
<use xlink:href="#path47_fill" transform="translate(888.2 1550)" fill="#FF9F74"/>
</g>
<g id="Vector">
<use xlink:href="#path48_fill" transform="translate(893 1544.6)" fill="#FF9F74"/>
</g>
<g id="Vector">
<use xlink:href="#path49_fill" transform="translate(903.9 1544.6)" fill="#FF9F74"/>
</g>
<g id="Vector">
<use xlink:href="#path50_fill" transform="translate(898.4 1550)" fill="#FF9F74"/>
</g>
<g id="Vector">
<use xlink:href="#path51_fill" transform="translate(909.392 1550)" fill="#FF9F74"/>
</g>
<g id="Vector">
<use xlink:href="#path52_fill" transform="translate(914.8 1544.6)" fill="#FF9F74"/>
</g>
<g id="Vector">
<use xlink:href="#path53_fill" transform="translate(914.8 1555.5)" fill="#FF9F74"/>
</g>
<g id="Vector">
<use xlink:href="#path54_fill" transform="translate(903.9 1555.5)" fill="#FF9F74"/>
</g>
<g id="Vector">
<use xlink:href="#path55_fill" transform="translate(920.3 1539.1)" fill="#FF9F74"/>
</g>
<g id="Vector">
<use xlink:href="#path56_fill" transform="translate(920.3 1550)" fill="#FF9F74"/>
</g>
<g id="Vector">
<use xlink:href="#path57_fill" transform="translate(931.2 1539.1)" fill="#FF9F74"/>
</g>
<g id="Vector">
<use xlink:href="#path58_fill" transform="translate(931.2 1550)" fill="#FF9F74"/>
</g>
<g id="Vector">
<use xlink:href="#path59_fill" transform="translate(925.7 1544.6)" fill="#FF9F74"/>
</g>
<g id="Vector">
<use xlink:href="#path58_fill" transform="translate(925.7 1555.5)" fill="#FF9F74"/>
</g>
<g id="Vector">
<use xlink:href="#path60_fill" transform="translate(898.4 1560.9)" fill="#FF9F74"/>
</g>
<g id="Vector">
<use xlink:href="#path61_fill" transform="translate(909.4 1560.9)" fill="#FF9F74"/>
</g>
<g id="Vector">
<use xlink:href="#path61_fill" transform="translate(903.9 1566.4)" fill="#FF9F74"/>
</g>
<g id="Vector">
<use xlink:href="#path62_fill" transform="translate(909.392 1571.9)" fill="#FF9F74"/>
</g>
<g id="Vector">
<use xlink:href="#path63_fill" transform="translate(914.8 1566.4)" fill="#FF9F74"/>
</g>
<g id="Vector">
<use xlink:href="#path64_fill" transform="translate(920.3 1560.9)" fill="#FF9F74"/>
</g>
<g id="Vector">
<use xlink:href="#path64_fill" transform="translate(920.3 1571.9)" fill="#FF9F74"/>
</g>
<g id="Vector">
<use xlink:href="#path65_fill" transform="translate(931.2 1560.9)" fill="#FF9F74"/>
</g>
<g id="Vector">
<use xlink:href="#path65_fill" transform="translate(931.2 1571.9)" fill="#FF9F74"/>
</g>
<g id="Vector">
<use xlink:href="#path65_fill" transform="translate(925.7 1566.4)" fill="#FF9F74"/>
</g>
<g id="Vector">
<use xlink:href="#path66_fill" transform="translate(914.8 1577.3)" fill="#FF9F74"/>
</g>
<g id="Vector">
<use xlink:href="#path67_fill" transform="translate(925.7 1577.3)" fill="#FF9F74"/>
</g>
<g id="Vector">
<use xlink:href="#path68_fill" transform="translate(932.3 1582.7)" fill="#FF9F74"/>
</g>
</g>
</g>
</g>
<defs>
<path id="path0_fill" d="M 0 0L 0 50L 50 50C 50 22.3 27.6 0 0 0Z"/>
<path id="path1_fill" d="M 50 50L 50 0L 0 0C 0 27.6 22.4 50 50 50Z"/>
<path id="path2_fill" d="M 50 3C 75.9 3 97 24.1 97 50C 97 75.9 75.9 97 50 97C 24.1 97 3 75.9 3 50C 3 24 24.1 3 50 3ZM 50 0C 22.4 0 0 22.4 0 50C 0 77.6 22.4 100 50 100C 77.6 100 100 77.6 100 50C 100 22.3 77.6 0 50 0Z"/>
<path id="path3_fill" d="M 1.5 100C 0.7 100 0 99.3 0 98.5L 0 1.5C 0 0.7 0.7 0 1.5 0C 2.3 0 3 0.7 3 1.5L 3 98.5C 3 99.3 2.4 100 1.5 100Z"/>
<path id="path4_fill" d="M 98.5 3L 1.5 3C 0.7 3 0 2.3 0 1.5C 0 0.7 0.7 0 1.5 0L 98.5 0C 99.3 0 100 0.7 100 1.5C 100 2.3 99.4 3 98.5 3Z"/>
<path id="path5_fill" d="M 2 0.1C 1.3 0.1 0.599999 0 -7.62939e-07 0C 0.299999 0.2 0.700002 0.4 1.1 0.4C 1.4 0.4 1.8 0.3 2 0.1Z"/>
<path id="path6_fill" d="M 1.8 2.8C 2.7 2.8 3.4 2.2 3.6 1.4C 2.5 0.9 1.4 0.4 0.300003 -4.44089e-16C 0.100003 0.3 0 0.6 0 1C 0 2 0.800003 2.8 1.8 2.8Z"/>
<path id="path7_fill" d="M 1.8 4.76837e-08C 0.799999 4.76837e-08 0 0.8 0 1.8C 0 2.8 0.799999 3.6 1.8 3.6C 2.8 3.6 3.6 2.8 3.6 1.8C 3.6 0.8 2.8 4.76837e-08 1.8 4.76837e-08Z"/>
<path id="path8_fill" d="M 1.8 3.6C 2.79411 3.6 3.6 2.79411 3.6 1.8C 3.6 0.805887 2.79411 0 1.8 0C 0.805889 0 0 0.805887 0 1.8C 0 2.79411 0.805889 3.6 1.8 3.6Z"/>
<path id="path9_fill" d="M 1.8 3.6C 2.79411 3.6 3.6 2.79411 3.6 1.8C 3.6 0.805887 2.79411 0 1.8 0C 0.805887 0 0 0.805887 0 1.8C 0 2.79411 0.805887 3.6 1.8 3.6Z"/>
<path id="path10_fill" d="M 1.8 3.6C 2.79412 3.6 3.6 2.79411 3.6 1.8C 3.6 0.805887 2.79412 0 1.8 0C 0.805891 0 0 0.805887 0 1.8C 0 2.79411 0.805891 3.6 1.8 3.6Z"/>
<path id="path11_fill" d="M 1.8 3.6C 2.79411 3.6 3.6 2.79411 3.6 1.8C 3.6 0.805887 2.79411 0 1.8 0C 0.805884 0 0 0.805887 0 1.8C 0 2.79411 0.805884 3.6 1.8 3.6Z"/>
<path id="path12_fill" d="M 1.8 3.8147e-07C 0.799999 3.8147e-07 0 0.8 0 1.8C 0 2.8 0.799999 3.6 1.8 3.6C 2.8 3.6 3.6 2.8 3.6 1.8C 3.6 0.8 2.8 3.8147e-07 1.8 3.8147e-07Z"/>
<path id="path13_fill" d="M 1.8 -9.53674e-08C 0.799999 -9.53674e-08 0 0.8 0 1.8C 0 2.8 0.799999 3.6 1.8 3.6C 2.8 3.6 3.6 2.8 3.6 1.8C 3.6 0.8 2.8 -9.53674e-08 1.8 -9.53674e-08Z"/>
<path id="path14_fill" d="M 1.8 -9.53674e-08C 0.799997 -9.53674e-08 1.52588e-06 0.8 1.52588e-06 1.8C 1.52588e-06 2.8 0.799997 3.6 1.8 3.6C 2.8 3.6 3.6 2.8 3.6 1.8C 3.6 0.8 2.8 -9.53674e-08 1.8 -9.53674e-08Z"/>
<path id="path15_fill" d="M 1.8 0C 0.799999 0 0 0.799999 0 1.8C 0 2.8 0.799999 3.6 1.8 3.6C 2.8 3.6 3.6 2.8 3.6 1.8C 3.6 0.799999 2.8 0 1.8 0Z"/>
<path id="path16_fill" d="M 1.8 0C 0.799997 0 1.52588e-06 0.799999 1.52588e-06 1.8C 1.52588e-06 2.8 0.799997 3.6 1.8 3.6C 2.8 3.6 3.6 2.8 3.6 1.8C 3.6 0.799999 2.8 0 1.8 0Z"/>
<path id="path17_fill" d="M 1.8 0C 0.800002 0 -1.52588e-06 0.799999 -1.52588e-06 1.8C -1.52588e-06 2.8 0.800002 3.6 1.8 3.6C 2.8 3.6 3.6 2.8 3.6 1.8C 3.6 0.799999 2.8 0 1.8 0Z"/>
<path id="path18_fill" d="M 1.8 3.8147e-07C 0.800002 3.8147e-07 -1.52588e-06 0.8 -1.52588e-06 1.8C -1.52588e-06 2.8 0.800002 3.6 1.8 3.6C 2.8 3.6 3.6 2.8 3.6 1.8C 3.6 0.8 2.8 3.8147e-07 1.8 3.8147e-07Z"/>
<path id="path19_fill" d="M 1.8 0C 0.800003 0 0 0.799999 0 1.8C 0 2.8 0.800003 3.6 1.8 3.6C 2.8 3.6 3.6 2.8 3.6 1.8C 3.6 0.799999 2.8 0 1.8 0Z"/>
<path id="path20_fill" d="M 1.8 0C 0.799999 0 0 0.799999 0 1.8C 0 2.8 0.799999 3.6 1.8 3.6C 2.8 3.6 3.6 2.8 3.6 1.8C 3.6 0.799999 2.8 0 1.8 0Z"/>
<path id="path21_fill" d="M 1.8 3.8147e-07C 0.799997 3.8147e-07 1.52588e-06 0.8 1.52588e-06 1.8C 1.52588e-06 2.8 0.799997 3.6 1.8 3.6C 2.8 3.6 3.6 2.8 3.6 1.8C 3.6 0.8 2.8 3.8147e-07 1.8 3.8147e-07Z"/>
<path id="path22_fill" d="M 1.8 3.8147e-07C 0.799999 3.8147e-07 3.05176e-06 0.8 3.05176e-06 1.8C 3.05176e-06 2.8 0.799999 3.6 1.8 3.6C 2.8 3.6 3.6 2.8 3.6 1.8C 3.6 0.8 2.8 3.8147e-07 1.8 3.8147e-07Z"/>
<path id="path23_fill" d="M 1.8 0C 0.799997 0 1.52588e-06 0.799999 1.52588e-06 1.8C 1.52588e-06 2.8 0.799997 3.6 1.8 3.6C 2.8 3.6 3.6 2.8 3.6 1.8C 3.6 0.799999 2.8 0 1.8 0Z"/>
<path id="path24_fill" d="M 1.8 0C 0.799999 0 3.05176e-06 0.799999 3.05176e-06 1.8C 3.05176e-06 2.8 0.799999 3.6 1.8 3.6C 2.8 3.6 3.6 2.8 3.6 1.8C 3.6 0.799999 2.8 0 1.8 0Z"/>
<path id="path25_fill" d="M -3.05176e-06 1.8C -3.05176e-06 2.8 0.8 3.6 1.8 3.6C 2.2 3.6 2.5 3.5 2.8 3.3C 2.4 2.2 1.9 1.1 1.4 -3.55271e-15C 0.599998 0.2 -3.05176e-06 0.899999 -3.05176e-06 1.8Z"/>
<path id="path26_fill" d="M 1.8 0C 0.799999 0 3.05176e-06 0.799999 3.05176e-06 1.8C 3.05176e-06 2.8 0.799999 3.6 1.8 3.6C 2.8 3.6 3.6 2.8 3.6 1.8C 3.7 0.799999 2.8 0 1.8 0Z"/>
<path id="path27_fill" d="M 1.8 3.6C 2.79411 3.6 3.6 2.79411 3.6 1.8C 3.6 0.805887 2.79411 0 1.8 0C 0.805887 0 0 0.805887 0 1.8C 0 2.79411 0.805887 3.6 1.8 3.6Z"/>
<path id="path28_fill" d="M 1.8 3.6C 2.79412 3.6 3.6 2.79411 3.6 1.8C 3.6 0.805887 2.79412 0 1.8 0C 0.805891 0 0 0.805887 0 1.8C 0 2.79411 0.805891 3.6 1.8 3.6Z"/>
<path id="path29_fill" d="M 1.8 3.6C 2.79411 3.6 3.6 2.79411 3.6 1.8C 3.6 0.805887 2.79411 0 1.8 0C 0.805884 0 0 0.805887 0 1.8C 0 2.79411 0.805884 3.6 1.8 3.6Z"/>
<path id="path30_fill" d="M 1.8 3.6C 2.79411 3.6 3.6 2.79411 3.6 1.8C 3.6 0.805887 2.79411 0 1.8 0C 0.805886 0 3.05176e-06 0.805887 3.05176e-06 1.8C 3.05176e-06 2.79411 0.805886 3.6 1.8 3.6Z"/>
<path id="path31_fill" d="M 1.8 1.52588e-06C 0.799999 1.52588e-06 0 0.800001 0 1.8C 0 2.8 0.799999 3.6 1.8 3.6C 2.8 3.6 3.6 2.8 3.6 1.8C 3.6 0.800001 2.8 1.52588e-06 1.8 1.52588e-06Z"/>
<path id="path32_fill" d="M 1.8 3.6C 2.8 3.6 3.6 2.8 3.6 1.8C 3.6 0.800001 2.8 1.52588e-06 1.8 1.52588e-06C 0.800002 1.52588e-06 -1.52588e-06 0.800001 -1.52588e-06 1.8C -1.52588e-06 2.8 0.800002 3.6 1.8 3.6Z"/>
<path id="path33_fill" d="M 1.8 3.6C 2.8 3.6 3.6 2.8 3.6 1.8C 3.6 0.800001 2.8 1.52588e-06 1.8 1.52588e-06C 0.800003 1.52588e-06 0 0.800001 0 1.8C 0 2.8 0.800003 3.6 1.8 3.6Z"/>
<path id="path34_fill" d="M 1.8 1.52588e-06C 0.799997 1.52588e-06 1.52588e-06 0.800001 1.52588e-06 1.8C 1.52588e-06 2.8 0.799997 3.6 1.8 3.6C 2.8 3.6 3.6 2.8 3.6 1.8C 3.6 0.800001 2.8 1.52588e-06 1.8 1.52588e-06Z"/>
<path id="path35_fill" d="M 1.8 1.52588e-06C 0.799999 1.52588e-06 3.05176e-06 0.800001 3.05176e-06 1.8C 3.05176e-06 2.8 0.799999 3.6 1.8 3.6C 2.8 3.6 3.6 2.8 3.6 1.8C 3.6 0.800001 2.8 1.52588e-06 1.8 1.52588e-06Z"/>
<path id="path36_fill" d="M -3.05176e-06 1.8C -3.05176e-06 2.8 0.8 3.6 1.8 3.6C 2.8 3.6 3.6 2.8 3.6 1.8C 3.6 0.800001 2.8 1.52588e-06 1.8 1.52588e-06C 0.8 1.52588e-06 -3.05176e-06 0.800001 -3.05176e-06 1.8Z"/>
<path id="path37_fill" d="M 0.200002 -7.62939e-07C 0.100002 0.299999 -3.05176e-06 0.500001 -3.05176e-06 0.900001C -3.05176e-06 1.3 0.1 1.6 0.3 1.9C 0.3 1.3 0.300002 0.599999 0.200002 -7.62939e-07Z"/>
<path id="path38_fill" d="M 1.8 3.6C 2.79411 3.6 3.6 2.79411 3.6 1.8C 3.6 0.805889 2.79411 0 1.8 0C 0.805888 0 0 0.805889 0 1.8C 0 2.79411 0.805888 3.6 1.8 3.6Z"/>
<path id="path39_fill" d="M 1.8 3.6C 2.79411 3.6 3.6 2.79411 3.6 1.8C 3.6 0.805889 2.79411 0 1.8 0C 0.805887 0 0 0.805889 0 1.8C 0 2.79411 0.805887 3.6 1.8 3.6Z"/>
<path id="path40_fill" d="M 1.8 3.6C 2.79411 3.6 3.6 2.79411 3.6 1.8C 3.6 0.805889 2.79411 0 1.8 0C 0.805888 0 0 0.805889 0 1.8C 0 2.79411 0.805888 3.6 1.8 3.6Z"/>
<path id="path41_fill" d="M 1.49012e-09 -1.52588e-06C 1.49012e-09 0.899998 0.1 1.7 0.1 2.6C 0.4 2.3 0.6 1.8 0.6 1.4C 0.6 0.8 0.3 0.299998 1.49012e-09 -1.52588e-06Z"/>
<path id="path42_fill" d="M 1.8 3.6C 2.8 3.6 3.6 2.8 3.6 1.8C 3.6 0.800002 2.8 -1.52588e-06 1.8 -1.52588e-06C 0.8 -1.52588e-06 0 0.800002 0 1.8C 0 2.8 0.8 3.6 1.8 3.6Z"/>
<path id="path43_fill" d="M 1.8 3.6C 2.8 3.6 3.6 2.8 3.6 1.8C 3.6 0.800002 2.8 -1.52588e-06 1.8 -1.52588e-06C 0.800001 -1.52588e-06 -3.8147e-07 0.800002 -3.8147e-07 1.8C -3.8147e-07 2.8 0.800001 3.6 1.8 3.6Z"/>
<path id="path44_fill" d="M 1.8 3.6C 2.8 3.6 3.6 2.8 3.6 1.8C 3.6 0.800002 2.8 -1.52588e-06 1.8 -1.52588e-06C 0.8 -1.52588e-06 -7.62939e-07 0.800002 -7.62939e-07 1.8C -7.62939e-07 2.8 0.8 3.6 1.8 3.6Z"/>
<path id="path45_fill" d="M 1.8 3.6C 2.8 3.6 3.6 2.8 3.6 1.8C 3.6 0.800002 2.8 -1.52588e-06 1.8 -1.52588e-06C 0.8 -1.52588e-06 7.62939e-07 0.800002 7.62939e-07 1.8C 7.62939e-07 2.8 0.8 3.6 1.8 3.6Z"/>
<path id="path46_fill" d="M 1.8 3.6C 2.8 3.6 3.6 2.8 3.6 1.8C 3.6 0.800003 2.8 0 1.8 0C 0.8 0 0 0.800003 0 1.8C 0 2.8 0.8 3.6 1.8 3.6Z"/>
<path id="path47_fill" d="M 3 1.8C 3 0.800003 2.2 0 1.2 0C 0.7 0 0.3 0.2 4.76837e-08 0.5C 0.4 1.6 0.8 2.6 1.3 3.7C 2.3 3.6 3 2.8 3 1.8Z"/>
<path id="path48_fill" d="M 1.8 3.6C 2.8 3.6 3.6 2.8 3.6 1.8C 3.6 0.800002 2.8 -1.52588e-06 1.8 -1.52588e-06C 0.8 -1.52588e-06 0 0.800002 0 1.8C 0 2.8 0.8 3.6 1.8 3.6Z"/>
<path id="path49_fill" d="M 1.8 3.6C 2.8 3.6 3.6 2.8 3.6 1.8C 3.6 0.800002 2.8 -1.52588e-06 1.8 -1.52588e-06C 0.800001 -1.52588e-06 -3.8147e-07 0.800002 -3.8147e-07 1.8C -3.8147e-07 2.8 0.800001 3.6 1.8 3.6Z"/>
<path id="path50_fill" d="M 1.8 3.6C 2.8 3.6 3.6 2.8 3.6 1.8C 3.6 0.800003 2.8 0 1.8 0C 0.8 0 -3.8147e-07 0.800003 -3.8147e-07 1.8C -3.8147e-07 2.8 0.8 3.6 1.8 3.6Z"/>
<path id="path51_fill" d="M 1.80762 3.6C 2.80762 3.6 3.60762 2.8 3.60762 1.8C 3.60762 0.800003 2.80762 0 1.80762 0C 0.807617 0 0.0076161 0.800003 0.0076161 1.8C -0.0923839 2.8 0.807617 3.6 1.80762 3.6Z"/>
<path id="path52_fill" d="M 1.8 3.6C 2.8 3.6 3.6 2.8 3.6 1.8C 3.6 0.800002 2.8 -1.52588e-06 1.8 -1.52588e-06C 0.8 -1.52588e-06 -7.62939e-07 0.800002 -7.62939e-07 1.8C -7.62939e-07 2.8 0.8 3.6 1.8 3.6Z"/>
<path id="path53_fill" d="M 1.8 3.6C 2.8 3.6 3.6 2.8 3.6 1.8C 3.6 0.800003 2.8 0 1.8 0C 0.8 0 -7.62939e-07 0.800003 -7.62939e-07 1.8C -7.62939e-07 2.8 0.8 3.6 1.8 3.6Z"/>
<path id="path54_fill" d="M 1.8 3.6C 2.8 3.6 3.6 2.8 3.6 1.8C 3.6 0.800003 2.8 0 1.8 0C 0.800001 0 -3.8147e-07 0.800003 -3.8147e-07 1.8C -3.8147e-07 2.8 0.800001 3.6 1.8 3.6Z"/>
<path id="path55_fill" d="M 1.8 3.6C 2.79411 3.6 3.6 2.79411 3.6 1.8C 3.6 0.805889 2.79411 0 1.8 0C 0.805886 0 0 0.805889 0 1.8C 0 2.79411 0.805886 3.6 1.8 3.6Z"/>
<path id="path56_fill" d="M 1.8 3.6C 2.8 3.6 3.6 2.8 3.6 1.8C 3.6 0.800003 2.8 0 1.8 0C 0.799999 0 -7.62939e-07 0.800003 -7.62939e-07 1.8C -7.62939e-07 2.8 0.799999 3.6 1.8 3.6Z"/>
<path id="path57_fill" d="M 1.8 3.6C 2.79411 3.6 3.6 2.79411 3.6 1.8C 3.6 0.805889 2.79411 0 1.8 0C 0.805887 0 0 0.805889 0 1.8C 0 2.79411 0.805887 3.6 1.8 3.6Z"/>
<path id="path58_fill" d="M 1.8 3.6C 2.8 3.6 3.6 2.8 3.6 1.8C 3.6 0.800003 2.8 0 1.8 0C 0.8 0 7.62939e-07 0.800003 7.62939e-07 1.8C 7.62939e-07 2.8 0.8 3.6 1.8 3.6Z"/>
<path id="path59_fill" d="M 1.8 3.6C 2.8 3.6 3.6 2.8 3.6 1.8C 3.6 0.800002 2.8 -1.52588e-06 1.8 -1.52588e-06C 0.8 -1.52588e-06 7.62939e-07 0.800002 7.62939e-07 1.8C 7.62939e-07 2.8 0.8 3.6 1.8 3.6Z"/>
<path id="path60_fill" d="M 1.8 3.6C 2.8 3.6 3.6 2.8 3.6 1.8C 3.6 0.799997 2.8 1.52588e-06 1.8 1.52588e-06C 0.8 1.52588e-06 -3.8147e-07 0.799997 -3.8147e-07 1.8C -3.8147e-07 2.8 0.8 3.6 1.8 3.6Z"/>
<path id="path61_fill" d="M 1.8 3.6C 2.8 3.6 3.6 2.8 3.6 1.8C 3.6 0.799997 2.8 1.52588e-06 1.8 1.52588e-06C 0.800001 1.52588e-06 -3.8147e-07 0.799997 -3.8147e-07 1.8C -3.8147e-07 2.8 0.800001 3.6 1.8 3.6Z"/>
<path id="path62_fill" d="M 1.80762 3.6C 2.80762 3.6 3.60762 2.8 3.60762 1.8C 3.60762 0.799997 2.80762 1.52588e-06 1.80762 1.52588e-06C 0.807617 1.52588e-06 0.0076161 0.799997 0.0076161 1.8C -0.0923839 2.7 0.807617 3.6 1.80762 3.6Z"/>
<path id="path63_fill" d="M 1.8 3.6C 2.8 3.6 3.6 2.8 3.6 1.8C 3.6 0.799997 2.8 1.52588e-06 1.8 1.52588e-06C 0.8 1.52588e-06 -7.62939e-07 0.799997 -7.62939e-07 1.8C -7.62939e-07 2.8 0.8 3.6 1.8 3.6Z"/>
<path id="path64_fill" d="M 1.8 3.6C 2.8 3.6 3.6 2.8 3.6 1.8C 3.6 0.799997 2.8 1.52588e-06 1.8 1.52588e-06C 0.799999 1.52588e-06 -7.62939e-07 0.799997 -7.62939e-07 1.8C -7.62939e-07 2.8 0.799999 3.6 1.8 3.6Z"/>
<path id="path65_fill" d="M 1.8 3.6C 2.8 3.6 3.6 2.8 3.6 1.8C 3.6 0.799997 2.8 1.52588e-06 1.8 1.52588e-06C 0.8 1.52588e-06 7.62939e-07 0.799997 7.62939e-07 1.8C 7.62939e-07 2.8 0.8 3.6 1.8 3.6Z"/>
<path id="path66_fill" d="M 1.8 3.05176e-06C 0.9 3.05176e-06 0.199999 0.599997 -7.62939e-07 1.4C 1.1 1.9 2.2 2.3 3.3 2.7C 3.5 2.4 3.6 2.1 3.6 1.8C 3.6 0.799999 2.8 3.05176e-06 1.8 3.05176e-06Z"/>
<path id="path67_fill" d="M 1.8 3.6C 2.8 3.6 3.6 2.8 3.6 1.8C 3.6 0.799999 2.8 3.05176e-06 1.8 3.05176e-06C 0.8 3.05176e-06 7.62939e-07 0.799999 7.62939e-07 1.8C 7.62939e-07 2.8 0.8 3.6 1.8 3.6Z"/>
<path id="path68_fill" d="M -7.62939e-07 0.200002C 0.499999 0.200002 0.999999 0.200002 1.5 0.200002C 1.3 0.100002 1 -3.05176e-06 0.7 -3.05176e-06C 0.4 -3.05176e-06 0.199999 0.100002 -7.62939e-07 0.200002Z"/>
</defs>
</svg>
