<svg width="164" height="50" viewBox="0 0 164 50" version="1.1" xmlns="http://www.w3.org/2000/svg" xmlns:xlink="http://www.w3.org/1999/xlink">
<title>CyberITL_LogoHoriz_Black</title>
<desc>Created using Figma</desc>
<g id="Canvas" transform="translate(-100 -60)">
<g id="CyberITL_LogoHoriz_Black">
<g id="Group">
<g id="Group">
<g id="Group">
<g id="Vector">
<use xlink:href="#path0_fill" transform="translate(157.848 64.4145)" fill="#FFFFFF"/>
</g>
<g id="Vector">
<use xlink:href="#path1_fill" transform="translate(181.055 64.813)" fill="#FFFFFF"/>
</g>
<g id="Vector">
<use xlink:href="#path2_fill" transform="translate(206.162 64.813)" fill="#FFFFFF"/>
</g>
<g id="Vector">
<use xlink:href="#path3_fill" transform="translate(228.357 64.813)" fill="#FFFFFF"/>
</g>
<g id="Vector">
<use xlink:href="#path4_fill" transform="translate(249.571 64.813)" fill="#FFFFFF"/>
</g>
</g>
<g id="Group">
<g id="Vector">
<use xlink:href="#path5_fill" transform="translate(170.08 98.0135)" fill="#FFFFFF"/>
</g>
<g id="Vector">
<use xlink:href="#path6_fill" transform="translate(190.926 89.767)" fill="#FFFFFF"/>
</g>
<g id="Vector">
<use xlink:href="#path7_fill" transform="translate(201.931 89.767)" fill="#FFFFFF"/>
</g>
<g id="Vector">
<use xlink:href="#path8_fill" transform="translate(224.126 89.767)" fill="#FFFFFF"/>
</g>
<g id="Vector">
<use xlink:href="#path9_fill" transform="translate(238.872 98.0135)" fill="#FFFFFF"/>
</g>
</g>
</g>
<g id="Group">
<g id="Vector">
<use xlink:href="#path10_fill" transform="translate(139.24 78.2403)" fill="#FFFFFF"/>
</g>
<g id="Vector">
<use xlink:href="#path11_fill" transform="translate(139.24 97.4004)" fill="#FFFFFF"/>
</g>
<g id="Vector">
<use xlink:href="#path12_fill" transform="translate(119.742 60)" fill="#FFFFFF"/>
</g>
<g id="Vector">
<use xlink:href="#path13_fill" transform="translate(119.773 72.0172)" fill="#FFFFFF"/>
</g>
<g id="Vector">
<use xlink:href="#path14_fill" transform="translate(109.841 66.4378)" fill="#FFFFFF"/>
</g>
<g id="Vector">
<use xlink:href="#path15_fill" transform="translate(109.871 94.4267)" fill="#FFFFFF"/>
</g>
<g id="Vector">
<use xlink:href="#path16_fill" transform="translate(100 78.2403)" fill="#FFFFFF"/>
</g>
<g id="Vector">
<use xlink:href="#path17_fill" transform="translate(109.871 78.3017)" fill="#FFFFFF"/>
</g>
<g id="Vector">
<use xlink:href="#path18_fill" transform="translate(100 97.4004)" fill="#FFFFFF"/>
</g>
<g id="Vector">
<use xlink:href="#path19_fill" transform="translate(129.491 66.4378)" fill="#FFFFFF"/>
</g>
<g id="Vector">
<use xlink:href="#path20_fill" transform="translate(129.46 78.3017)" fill="#FFFFFF"/>
</g>
<g id="Vector">
<use xlink:href="#path21_fill" transform="translate(129.46 94.4267)" fill="#FFFFFF"/>
</g>
</g>
</g>
</g>
</g>
<defs>
<path id="path0_fill" d="M 14.1018 4.87431C 13.3967 4.10791 12.7223 3.61741 12.0785 3.37217C 11.4347 3.12692 10.7603 3.00429 10.1165 3.00429C 9.1355 3.00429 8.24647 3.18823 7.44942 3.52545C 6.65236 3.86266 5.97793 4.35316 5.39546 4.96628C 4.813 5.5794 4.38381 6.31514 4.07725 7.14286C 3.77069 7.97057 3.61741 8.8596 3.61741 9.80993C 3.61741 10.8216 3.77069 11.7719 4.07725 12.6303C 4.38381 13.4887 4.84365 14.2244 5.39546 14.8682C 5.97793 15.4813 6.65236 16.0025 7.44942 16.3397C 8.24647 16.7075 9.1355 16.8915 10.1165 16.8915C 10.8829 16.8915 11.6493 16.7075 12.3544 16.3397C 13.0901 15.9718 13.7646 15.3893 14.3777 14.5923L 17.1674 16.5849C 16.309 17.7805 15.2667 18.6389 14.0098 19.16C 12.7836 19.7118 11.4654 19.9571 10.0552 19.9571C 8.58369 19.9571 7.23482 19.7118 6.00858 19.252C 4.78234 18.7922 3.70938 18.1177 2.85101 17.2287C 1.96198 16.3703 1.2569 15.328 0.766403 14.1018C 0.275906 12.8755 1.8711e-06 11.5267 1.8711e-06 10.0552C 1.8711e-06 8.52238 0.24525 7.14286 0.766403 5.91662C 1.2569 4.65972 1.96198 3.61741 2.85101 2.72839C 3.74004 1.83936 4.78234 1.16493 6.00858 0.705088C 7.23482 0.245248 8.58369 9.35548e-07 10.0552 9.35548e-07C 11.3427 9.35548e-07 12.5383 0.214592 13.6419 0.674433C 14.7456 1.13427 15.7572 1.90067 16.7075 3.00429L 14.1018 4.87431Z"/>
<path id="path1_fill" d="M 7.14286 10.8829L -3.74219e-06 -4.67774e-07L 4.26119 -4.67774e-07L 8.95156 7.57204L 13.6726 -4.67774e-07L 17.7192 -4.67774e-07L 10.5763 10.8829L 10.5763 19.0374L 7.20417 19.0374L 7.20417 10.8829L 7.14286 10.8829Z"/>
<path id="path2_fill" d="M 3.74219e-06 -4.67774e-07L 7.41876 -4.67774e-07C 8.12385 -4.67774e-07 8.82894 0.0919686 9.53402 0.245249C 10.2391 0.429185 10.8522 0.705088 11.404 1.07296C 11.9559 1.47149 12.385 1.96199 12.7223 2.57511C 13.0595 3.18823 13.2434 3.92397 13.2434 4.78234C 13.2434 5.8553 12.9368 6.74433 12.3237 7.44942C 11.7106 8.15451 10.9136 8.645 9.93256 8.95156L 9.93256 9.01288C 10.515 9.07419 11.0668 9.25812 11.588 9.50337C 12.1091 9.74862 12.5383 10.0858 12.9062 10.4844C 13.2741 10.8829 13.55 11.3427 13.7646 11.8945C 13.9792 12.4157 14.0711 12.9982 14.0711 13.6113C 14.0711 14.6536 13.8565 15.512 13.458 16.217C 13.0595 16.9221 12.5077 17.4739 11.8332 17.8725C 11.1588 18.3017 10.3924 18.6082 9.53402 18.7615C 8.67566 18.9454 7.78664 19.0374 6.89761 19.0374L 0.0306523 19.0374L 0.0306523 -4.67774e-07L 3.74219e-06 -4.67774e-07ZM 3.40282 7.72532L 6.49908 7.72532C 7.63335 7.72532 8.46107 7.51073 9.04354 7.08154C 9.59534 6.65236 9.9019 6.0699 9.9019 5.33415C 9.9019 4.50644 9.59534 3.89332 9.01288 3.49479C 8.43041 3.09626 7.48007 2.88167 6.19252 2.88167L 3.40282 2.88167L 3.40282 7.72532ZM 3.40282 16.1251L 6.52974 16.1251C 6.95892 16.1251 7.41876 16.0944 7.90926 16.0331C 8.39975 15.9718 8.85959 15.8492 9.25812 15.6652C 9.65665 15.4813 10.0245 15.1747 10.2698 14.8069C 10.5457 14.439 10.6683 13.9485 10.6683 13.3047C 10.6683 12.2931 10.3311 11.588 9.6873 11.2201C 9.04353 10.8216 8.03188 10.6376 6.6217 10.6376L 3.37217 10.6376L 3.37217 16.1251L 3.40282 16.1251Z"/>
<path id="path3_fill" d="M 1.8711e-06 -4.67774e-07L 12.5996 -4.67774e-07L 12.5996 3.0656L 3.37217 3.0656L 3.37217 7.75598L 12.1091 7.75598L 12.1091 10.8216L 3.37217 10.8216L 3.37217 15.9718L 13.0901 15.9718L 13.0901 19.0374L 1.8711e-06 19.0374L 1.8711e-06 -4.67774e-07Z"/>
<path id="path4_fill" d="M -3.74219e-06 -4.67774e-07L 6.62171 -4.67774e-07C 7.54139 -4.67774e-07 8.43041 0.0919686 9.25812 0.245249C 10.1165 0.429185 10.8522 0.705088 11.5267 1.10362C 12.2011 1.50215 12.7222 2.08461 13.1208 2.75904C 13.5193 3.46413 13.7033 4.35316 13.7033 5.42612C 13.7033 6.80564 13.3354 7.97057 12.569 8.89025C 11.8026 9.80993 10.7296 10.3924 9.28877 10.5763L 14.347 18.9761L 10.2698 18.9761L 5.85531 10.9136L 3.37216 10.9136L 3.37216 18.9761L -3.74219e-06 18.9761L -3.74219e-06 -4.67774e-07ZM 6.03924 8.06254C 6.52974 8.06254 7.02024 8.03188 7.48008 8.00123C 7.97057 7.97057 8.39976 7.84795 8.79828 7.66401C 9.19681 7.48007 9.53403 7.23483 9.77928 6.89761C 10.0245 6.56039 10.1472 6.0699 10.1472 5.42612C 10.1472 4.87431 10.0245 4.41447 9.80993 4.07725C 9.56468 3.74004 9.25812 3.49479 8.89025 3.31085C 8.52238 3.12692 8.0932 3.03495 7.63336 2.97364C 7.17352 2.91232 6.74434 2.88167 6.31515 2.88167L 3.37216 2.88167L 3.37216 8.03188L 6.03924 8.03188L 6.03924 8.06254Z"/>
<path id="path5_fill" d="M 13.4273 2.57511L 0 2.57511L 0 -1.8711e-06L 13.4273 -1.8711e-06L 13.4273 2.57511Z"/>
<path id="path6_fill" d="M 0 0L 3.37216 0L 3.37216 19.0374L 0 19.0374L 0 0Z"/>
<path id="path7_fill" d="M 5.82465 3.0656L -1.8711e-06 3.0656L -1.8711e-06 0L 15.0521 0L 15.0521 3.0656L 9.22747 3.0656L 9.22747 19.0374L 5.8553 19.0374L 5.8553 3.0656L 5.82465 3.0656Z"/>
<path id="path8_fill" d="M -3.74219e-06 0L 3.37216 0L 3.37216 15.9718L 11.4654 15.9718L 11.4654 19.0374L -3.74219e-06 19.0374L -3.74219e-06 0Z"/>
<path id="path9_fill" d="M 13.4273 2.57511L -1.8711e-06 2.57511L -1.8711e-06 -1.8711e-06L 13.4273 -1.8711e-06L 13.4273 2.57511Z"/>
<path id="path10_fill" d="M 3.09626 17.9951C 2.26855 16.7995 1.31821 15.42 -1.8711e-06 14.439L -1.8711e-06 3.21888C -1.8711e-06 1.44083 1.44083 4.67774e-07 3.21888 4.67774e-07L 3.46413 4.67774e-07C 5.24218 4.67774e-07 6.68302 1.44083 6.68302 3.21888L 6.68302 21.4592C 5.27284 21.03 4.35316 19.8038 3.09626 17.9951Z"/>
<path id="path11_fill" d="M 0.459839 0.643777C 1.83936 2.63642 3.5561 5.0889 6.68302 5.54874L 6.68302 9.38075C 6.68302 11.1588 5.24218 12.5996 3.46413 12.5996L 3.21888 12.5996C 1.44083 12.5996 -1.8711e-06 11.1588 -1.8711e-06 9.38075L -1.8711e-06 -1.8711e-06C 0.153278 0.21459 0.306559 0.429185 0.459839 0.643777Z"/>
<path id="path12_fill" d="M 6.68302 9.56468L 6.68302 3.21888C 6.68302 1.44083 5.24218 4.67774e-07 3.46413 4.67774e-07L 3.21889 4.67774e-07C 1.44083 4.67774e-07 9.35548e-07 1.44083 9.35548e-07 3.21888L 9.35548e-07 9.74862C 0.950338 9.16616 2.11527 8.79828 3.49479 8.79828C 4.75169 8.79828 5.76334 9.07419 6.68302 9.56468Z"/>
<path id="path13_fill" d="M 3.18871 26.3949L 3.43396 26.3949C 5.21201 26.3949 6.65284 24.954 6.65284 23.176L 6.65284 1.62477C 5.73316 0.582465 4.81348 -4.67774e-07 3.49527 -4.67774e-07C 1.99312 -4.67774e-07 1.01213 0.766402 0.000480758 2.05396L 0.000480758 23.176C -0.0301753 24.9234 1.41066 26.3949 3.18871 26.3949Z"/>
<path id="path14_fill" d="M 6.10055 7.38811C 6.28449 7.1122 6.49908 6.8363 6.68302 6.52974L 6.68302 3.21888C 6.68302 1.44083 5.24218 4.67774e-07 3.46413 4.67774e-07L 3.21888 4.67774e-07C 1.44083 4.67774e-07 -4.35649e-15 1.44083 -4.35649e-15 3.21888L -4.35649e-15 10.7296C 0.429185 10.9136 0.889024 11.0055 1.44083 11.0055C 3.49479 11.0055 4.56775 9.626 6.10055 7.38811Z"/>
<path id="path15_fill" d="M 5.67137 3.61741C 4.10791 1.37952 3.0656 -9.35548e-07 1.01165 -9.35548e-07C 0.643777 -9.35548e-07 0.30656 0.0613111 -4.67774e-07 0.153279L -4.67774e-07 5.67137C -4.67774e-07 7.44942 1.44083 8.89025 3.21888 8.89025L 3.46413 8.89025C 5.24218 8.89025 6.68302 7.44942 6.68302 5.67137L 6.68302 4.99693C 6.31515 4.53709 5.97793 4.07725 5.67137 3.61741Z"/>
<path id="path16_fill" d="M 3.58676 17.9951C 4.41447 16.7995 5.36481 15.42 6.68302 14.439L 6.68302 3.21888C 6.68302 1.44083 5.24218 4.67774e-07 3.46413 4.67774e-07L 3.21888 4.67774e-07C 1.44083 4.67774e-07 4.67774e-07 1.44083 4.67774e-07 3.21888L 4.67774e-07 21.4592C 1.37952 21.03 2.32986 19.8038 3.58676 17.9951Z"/>
<path id="path17_fill" d="M 1.01165 12.9369C 3.61741 12.9369 5.33415 14.2244 6.68302 15.7572L 6.68302 1.8711e-06C 5.42612 1.31821 3.80135 2.36052 1.44083 2.36052C 0.919682 2.36052 0.45984 2.2992 -4.67774e-07 2.20724L -4.67774e-07 12.9982C 0.30656 12.9675 0.643777 12.9369 1.01165 12.9369Z"/>
<path id="path18_fill" d="M 6.22318 0.643777C 4.84365 2.63642 3.12692 5.0889 4.67774e-07 5.54874L 4.67774e-07 9.38075C 4.67774e-07 11.1588 1.44083 12.5996 3.21888 12.5996L 3.46413 12.5996C 5.24218 12.5996 6.68302 11.1588 6.68302 9.38075L 6.68302 -1.8711e-06C 6.52974 0.21459 6.37646 0.429185 6.22318 0.643777Z"/>
<path id="path19_fill" d="M 0.582465 7.38811C 0.398529 7.1122 0.183938 6.8363 1.8711e-06 6.52974L 1.8711e-06 3.21888C 1.8711e-06 1.44083 1.44084 4.67774e-07 3.21889 4.67774e-07L 3.46413 4.67774e-07C 5.24218 4.67774e-07 6.68301 1.44083 6.68301 3.21888L 6.68301 10.7296C 6.25383 10.9136 5.79399 11.0055 5.24218 11.0055C 3.18823 11.0055 2.14592 9.626 0.582465 7.38811Z"/>
<path id="path20_fill" d="M 5.67137 12.9369C 3.0656 12.9369 1.34887 14.2244 0 15.7572L 0 1.8711e-06C 1.2569 1.31821 2.88167 2.36052 5.24219 2.36052C 5.76334 2.36052 6.22318 2.2992 6.68302 2.20724L 6.68302 12.9982C 6.37646 12.9675 6.03924 12.9369 5.67137 12.9369Z"/>
<path id="path21_fill" d="M 1.01165 3.61741C 2.57511 1.37952 3.61741 -9.35548e-07 5.67137 -9.35548e-07C 6.03924 -9.35548e-07 6.37646 0.0613111 6.68302 0.153279L 6.68302 5.67137C 6.68302 7.44942 5.24218 8.89025 3.46413 8.89025L 3.21888 8.89025C 1.44083 8.89025 0 7.44942 0 5.67137L 0 4.99693C 0.367873 4.53709 0.70509 4.07725 1.01165 3.61741Z"/>
</defs>
</svg>
