<?xml version="1.0" encoding="utf-8"?>
<!-- Generator: Adobe Illustrator 22.1.0, SVG Export Plug-In . SVG Version: 6.00 Build 0)  -->
<svg version="1.1" id="Layer_1" xmlns="http://www.w3.org/2000/svg" xmlns:xlink="http://www.w3.org/1999/xlink" x="0px" y="0px"
	 viewBox="0 0 27.752 30" style="enable-background:new 0 0 27.752 30;" xml:space="preserve">
<style type="text/css">
	.st0{clip-path:url(#SVGID_2_);fill:#26A6D1;}
</style>
<g>
	<g>
		<defs>
			<rect id="SVGID_1_" y="-94.84" width="201.84" height="219.84"/>
		</defs>
		<clipPath id="SVGID_2_">
			<use xlink:href="#SVGID_1_"  style="overflow:visible;"/>
		</clipPath>
		<path class="st0" d="M10.72,7.398c-1.202,1.303-1.803,2.905-2.003,4.608h10.62v-0.801c-0.1-1.102-0.301-2.204-0.902-3.206
			c-0.802-1.302-2.104-2.003-3.607-2.204c-2.204-0.401-4.308,0-6.312,0.801c-3.005,1.102-5.51,2.905-7.514,5.31
			c-0.3,0.401-0.601,0.902-1.002,1.403c0-0.3,0-0.401,0.1-0.601c0.401-2.805,1.403-5.51,3.306-7.714
			c2.204-2.605,5.009-4.207,8.416-4.809c3.306-0.501,6.412,0,9.318,1.703c2.705,1.503,4.508,3.807,5.611,6.713
			c0.601,1.603,0.902,3.406,1.002,5.11v3.707H8.917c0,1.503,0.501,2.905,1.502,4.008c1.203,1.303,2.806,1.903,4.408,2.204
			c3.607,0.501,6.913-0.1,10.018-1.904c0.101,0,0.2-0.1,0.2-0.1h0.101v6.011c0,0.2-0.101,0.301-0.301,0.401
			c-2.204,1.102-4.608,1.803-7.113,1.904c-1.603,0.1-3.206,0.1-4.709-0.2c-4.709-1.002-8.516-4.408-9.418-9.318
			C2.605,14.812,5.31,9.702,10.62,7.398C10.62,7.398,10.62,7.398,10.72,7.398L10.72,7.398z M10.72,7.398"/>
	</g>
</g>
</svg>
