<svg width="199" height="38" viewBox="0 0 199 38" version="1.1" xmlns="http://www.w3.org/2000/svg" xmlns:xlink="http://www.w3.org/1999/xlink">
<title>ford_logo_white</title>
<desc>Created using Figma</desc>
<g id="Canvas" transform="translate(-482 -1207)">
<g id="ford_logo_white">
<g id="Ford Logo 3">
<g id="Vector">
<use xlink:href="#path0_fill" transform="translate(523.494 1219.5)" fill="#2B3748"/>
</g>
<g id="Group">
<g id="Vector">
<use xlink:href="#path1_fill" transform="translate(512.179 1207.89)" fill="#2B3748"/>
</g>
<g id="Vector">
<use xlink:href="#path2_fill" transform="translate(504.514 1207.75)" fill="#2B3748"/>
</g>
<g id="Vector">
<use xlink:href="#path3_fill" transform="translate(496.995 1207.75)" fill="#2B3748"/>
</g>
<g id="Vector">
<use xlink:href="#path4_fill" transform="translate(489.622 1207.89)" fill="#2B3748"/>
</g>
<g id="Vector">
<use xlink:href="#path5_fill" transform="translate(482.176 1207.89)" fill="#2B3748"/>
</g>
<g id="Vector">
<use xlink:href="#path6_fill" transform="translate(511.668 1214.68)" fill="#2B3748"/>
</g>
<g id="Vector">
<use xlink:href="#path7_fill" transform="translate(504.514 1214.97)" fill="#2B3748"/>
</g>
<g id="Vector">
<use xlink:href="#path8_fill" transform="translate(496.192 1214.17)" fill="#2B3748"/>
</g>
<g id="Vector">
<use xlink:href="#path9_fill" transform="translate(489.476 1214.97)" fill="#2B3748"/>
</g>
<g id="Vector">
<use xlink:href="#path10_fill" transform="translate(482.176 1215.12)" fill="#2B3748"/>
</g>
<g id="Vector">
<use xlink:href="#path11_fill" transform="translate(511.96 1222.2)" fill="#2B3748"/>
</g>
<g id="Vector">
<use xlink:href="#path12_fill" transform="translate(504.66 1222.35)" fill="#2B3748"/>
</g>
<g id="Vector">
<use xlink:href="#path13_fill" transform="translate(496.849 1222.06)" fill="#2B3748"/>
</g>
<g id="Vector">
<use xlink:href="#path14_fill" transform="translate(489.184 1221.91)" fill="#2B3748"/>
</g>
<g id="Vector">
<use xlink:href="#path15_fill" transform="translate(482.03 1222.2)" fill="#2B3748"/>
</g>
<g id="Vector">
<use xlink:href="#path16_fill" transform="translate(511.887 1229.29)" fill="#2B3748"/>
</g>
<g id="Vector">
<use xlink:href="#path17_fill" transform="translate(504.149 1229.14)" fill="#2B3748"/>
</g>
<g id="Vector">
<use xlink:href="#path18_fill" transform="translate(497.141 1229.58)" fill="#2B3748"/>
</g>
<g id="Vector">
<use xlink:href="#path19_fill" transform="translate(488.746 1228.63)" fill="#2B3748"/>
</g>
<g id="Vector">
<use xlink:href="#path20_fill" transform="translate(482.03 1229.43)" fill="#2B3748"/>
</g>
<g id="Vector">
<use xlink:href="#path21_fill" transform="translate(512.179 1236.88)" fill="#2B3748"/>
</g>
<g id="Vector">
<use xlink:href="#path22_fill" transform="translate(503.711 1235.93)" fill="#2B3748"/>
</g>
<g id="Vector">
<use xlink:href="#path23_fill" transform="translate(496.995 1236.73)" fill="#2B3748"/>
</g>
<g id="Vector">
<use xlink:href="#path24_fill" transform="translate(489.403 1236.59)" fill="#2B3748"/>
</g>
<g id="Vector">
<use xlink:href="#path25_fill" transform="translate(482.176 1236.88)" fill="#2B3748"/>
</g>
</g>
</g>
</g>
</g>
<defs>
<path id="path0_fill" d="M 80.665 7.52063C 80.665 10.5873 78.767 11.0984 77.088 11.0984C 75.409 11.0984 73.511 10.5143 73.511 7.52063L 73.511 0.292063L 72.343 0.292063L 72.343 7.66666C 72.343 9.63809 73.073 12.3397 77.088 12.3397C 81.103 12.3397 81.833 9.63809 81.833 7.66666L 81.833 0.292063L 80.665 0.292063L 80.665 7.52063ZM -5.56946e-07 12.0476L 1.606 12.0476L 1.606 7.00952L 7.957 7.00952L 7.957 5.5492L 1.606 5.5492L 1.606 1.89841L 8.322 1.89841L 8.322 0.438095L -5.56946e-07 0.438095L -5.56946e-07 12.0476ZM 15.768 1.39267e-07C 12.191 1.39267e-07 9.636 2.70159 9.636 6.13333C 9.636 9.63809 12.191 12.2667 15.768 12.2667C 19.345 12.2667 21.9 9.56508 21.9 6.13333C 21.9 2.70159 19.345 1.39267e-07 15.768 1.39267e-07ZM 15.768 10.8063C 13.067 10.8063 11.388 8.68889 11.388 6.13333C 11.388 3.57778 13.14 1.46032 15.768 1.46032C 18.469 1.46032 20.148 3.57778 20.148 6.13333C 20.148 8.7619 18.469 10.8063 15.768 10.8063ZM 33.726 3.57778C 33.726 2.11746 32.996 0.292063 30.003 0.292063L 24.017 0.292063L 24.017 11.9746L 25.623 11.9746L 25.623 6.79047L 29.273 6.79047L 32.266 11.9746L 34.237 11.9746L 30.879 6.64444C 32.631 6.49841 33.726 5.11111 33.726 3.57778ZM 25.55 5.47619L 25.55 1.67937L 29.565 1.67937C 30.806 1.67937 32.047 1.97143 32.047 3.57778C 32.047 5.18413 30.806 5.47619 29.565 5.47619L 25.55 5.47619ZM 40.661 0.292063L 36.573 0.292063L 36.573 11.9746L 40.369 11.9746C 44.53 11.9746 46.793 9.12698 46.793 6.13333C 46.793 4.01587 45.625 0.292063 40.661 0.292063ZM 40.15 10.5143L 38.179 10.5143L 38.179 1.75238L 40.588 1.75238C 44.384 1.75238 45.187 4.6 45.187 6.13333C 45.114 9.05397 42.851 10.5143 40.15 10.5143ZM 48.983 12.0476L 50.151 12.0476L 50.151 6.49841L 56.575 6.49841L 56.575 5.40317L 50.151 5.40317L 50.151 1.3873L 56.94 1.3873L 56.94 0.292063L 48.91 0.292063L 48.91 12.0476L 48.983 12.0476ZM 64.167 1.39267e-07C 60.663 1.39267e-07 58.035 2.62857 58.035 6.13333C 58.035 9.71111 60.663 12.2667 64.167 12.2667C 67.671 12.2667 70.299 9.63809 70.299 6.13333C 70.299 2.62857 67.671 1.39267e-07 64.167 1.39267e-07ZM 64.167 11.2444C 61.174 11.2444 59.349 8.90793 59.349 6.20635C 59.349 3.50476 61.174 1.16825 64.167 1.16825C 67.16 1.16825 68.985 3.50476 68.985 6.20635C 68.985 8.83492 67.233 11.2444 64.167 11.2444ZM 93.294 10.2222L 86.286 0.292063L 84.826 0.292063L 84.826 11.9746L 85.994 11.9746L 85.994 1.97143L 93.002 11.9746L 94.462 11.9746L 94.462 0.292063L 93.294 0.292063L 93.294 10.2222ZM 101.397 0.292063L 97.528 0.292063L 97.528 11.9746L 101.397 11.9746C 104.317 11.9746 107.529 10.0032 107.529 6.13333C 107.529 2.26349 104.317 0.292063 101.397 0.292063ZM 101.032 10.9524L 98.696 10.9524L 98.696 1.46032L 101.032 1.46032C 104.609 1.46032 106.288 3.79682 106.288 6.20635C 106.288 8.61587 104.609 10.9524 101.032 10.9524ZM 113.296 0.292063L 108.186 11.9746L 109.573 11.9746L 110.887 8.90793L 116.873 8.90793L 118.187 11.9746L 119.574 11.9746L 114.464 0.292063L 113.296 0.292063ZM 111.325 7.88571L 113.88 1.75238L 116.435 7.88571L 111.325 7.88571ZM 118.625 1.3873L 122.567 1.3873L 122.567 11.9746L 123.735 11.9746L 123.735 1.3873L 127.677 1.3873L 127.677 0.292063L 118.625 0.292063L 118.625 1.3873ZM 129.502 12.0476L 130.67 12.0476L 130.67 0.365079L 129.502 0.365079L 129.502 12.0476ZM 139.284 1.39267e-07C 135.78 1.39267e-07 133.152 2.62857 133.152 6.13333C 133.152 9.71111 135.78 12.2667 139.284 12.2667C 142.788 12.2667 145.416 9.63809 145.416 6.13333C 145.416 2.62857 142.788 1.39267e-07 139.284 1.39267e-07ZM 139.284 11.2444C 136.291 11.2444 134.466 8.90793 134.466 6.20635C 134.466 3.50476 136.291 1.16825 139.284 1.16825C 142.277 1.16825 144.102 3.50476 144.102 6.20635C 144.102 8.83492 142.277 11.2444 139.284 11.2444ZM 156.293 0.292063L 156.293 10.2222L 149.285 0.292063L 147.825 0.292063L 147.825 11.9746L 148.993 11.9746L 148.993 1.97143L 156.001 11.9746L 157.461 11.9746L 157.461 0.292063L 156.293 0.292063Z"/>
<path id="path1_fill" d="M -5.56946e-07 3.28571C -5.56946e-07 1.46032 1.46 6.96333e-08 3.285 6.96333e-08C 5.11 6.96333e-08 6.57001 1.46032 6.57001 3.28571C 6.57001 5.11111 5.11 6.57143 3.285 6.57143L 3.285 6.35238L 3.285 6.20635C 4.891 6.20635 6.27801 4.89206 6.27801 3.2127C 6.27801 1.60635 4.964 0.219048 3.285 0.219048C 1.679 0.219048 0.292001 1.53333 0.292001 3.2127C 0.292001 4.81905 1.606 6.20635 3.285 6.20635L 3.285 6.35238L 3.285 6.49841C 1.46 6.49841 -5.56946e-07 5.03809 -5.56946e-07 3.28571Z"/>
<path id="path2_fill" d="M -5.56947e-07 3.43174C -5.56947e-07 1.53333 1.533 3.48167e-08 3.43101 3.48167e-08C 5.32901 3.48167e-08 6.86202 1.53333 6.86202 3.43174C 6.86202 5.33016 5.32901 6.86349 3.43101 6.86349L 3.43101 6.49841L 3.43101 6.20635C 4.96401 6.20635 6.20501 4.96508 6.27802 3.43174C 6.20501 1.8254 4.96401 0.584127 3.43101 0.584127C 1.898 0.584127 0.657002 1.8254 0.657002 3.43174C 0.657002 4.96508 1.898 6.20635 3.43101 6.20635L 3.43101 6.49841L 3.43101 6.79047C 1.533 6.86349 -5.56947e-07 5.33016 -5.56947e-07 3.43174Z"/>
<path id="path3_fill" d="M 0 3.43174C 0 1.53333 1.533 3.48167e-08 3.431 3.48167e-08C 5.329 3.48167e-08 6.862 1.53333 6.862 3.43174C 6.862 5.33016 5.329 6.86349 3.431 6.86349L 3.431 6.49841L 3.431 6.20635C 4.964 6.20635 6.205 4.96508 6.205 3.43174C 6.205 1.89841 4.964 0.657142 3.431 0.584127C 1.898 0.584127 0.656999 1.8254 0.583999 3.43174C 0.583999 4.96508 1.825 6.20635 3.431 6.20635L 3.431 6.49841L 3.431 6.79047C 1.533 6.86349 0 5.33016 0 3.43174Z"/>
<path id="path4_fill" d="M 6.96185e-08 3.28571C 6.96185e-08 1.46032 1.46 6.96333e-08 3.28501 6.96333e-08C 5.11002 6.96333e-08 6.57002 1.46032 6.57002 3.28571C 6.57002 5.11111 5.11002 6.57143 3.28501 6.57143L 3.28501 6.35238L 3.28501 6.20635C 4.89102 6.20635 6.27802 4.89206 6.27802 3.2127C 6.27802 1.60635 4.96402 0.219048 3.28501 0.219048C 1.67901 0.219048 0.292001 1.53333 0.292001 3.2127C 0.292001 4.81905 1.60601 6.20635 3.28501 6.20635L 3.28501 6.35238L 3.28501 6.49841C 1.533 6.49841 6.96185e-08 5.03809 6.96185e-08 3.28571Z"/>
<path id="path5_fill" d="M -1.39236e-07 3.28571C -1.39236e-07 1.46032 1.46 6.96333e-08 3.285 6.96333e-08C 5.10999 6.96333e-08 6.56999 1.46032 6.56999 3.28571C 6.56999 5.11111 5.10999 6.57143 3.285 6.57143L 3.285 6.35238L 3.285 6.20635C 4.89099 6.20635 6.27799 4.89206 6.27799 3.2127C 6.27799 1.60635 4.96399 0.219048 3.285 0.219048C 1.679 0.219048 0.292 1.53333 0.292 3.2127C 0.292 4.81905 1.606 6.20635 3.285 6.20635L 3.285 6.35238L 3.285 6.49841C 1.46 6.49841 -1.39236e-07 5.03809 -1.39236e-07 3.28571Z"/>
<path id="path6_fill" d="M -1.11389e-06 3.72381C -1.11389e-06 1.67937 1.679 -1.39267e-07 3.72299 -1.39267e-07C 5.76699 -1.39267e-07 7.44598 1.67937 7.44598 3.72381C 7.44598 5.76826 5.76699 7.44762 3.72299 7.44762L 3.72299 6.79048L 3.72299 6.13334C 5.10999 6.13334 6.20499 5.0381 6.20499 3.65079C 6.20499 2.26349 5.10999 1.16825 3.72299 1.16825C 2.336 1.16825 1.241 2.26349 1.241 3.65079C 1.241 5.0381 2.336 6.13334 3.72299 6.13334L 3.72299 6.79048L 3.72299 7.44762C 1.679 7.44762 -1.11389e-06 5.76826 -1.11389e-06 3.72381Z"/>
<path id="path7_fill" d="M -5.56947e-07 3.43175C -5.56947e-07 1.53333 1.533 -6.96334e-08 3.43101 -6.96334e-08C 5.32901 -6.96334e-08 6.86202 1.53333 6.86202 3.43175C 6.86202 5.33016 5.32901 6.86349 3.43101 6.86349L 3.43101 6.57143L 3.43101 6.27936C 4.96401 6.27936 6.20501 5.03809 6.27802 3.50476C 6.27802 1.97143 5.03701 0.730159 3.43101 0.657143C 1.898 0.657143 0.657002 1.89841 0.657002 3.50476C 0.657002 5.03809 1.898 6.27936 3.43101 6.27936L 3.43101 6.57143L 3.43101 6.86349C 1.533 6.86349 -5.56947e-07 5.33016 -5.56947e-07 3.43175Z"/>
<path id="path8_fill" d="M -2.78472e-07 4.23492C -2.78472e-07 1.89841 1.898 -6.48511e-16 4.23399 -6.48511e-16C 6.56999 -6.48511e-16 8.46799 1.89841 8.46799 4.23492C 8.46799 6.57143 6.56999 8.46984 4.23399 8.46984L 4.23399 7.37461L 4.23399 6.27937C 5.32899 6.27937 6.27799 5.40318 6.27799 4.23492C 6.27799 3.13968 5.40199 2.19048 4.23399 2.19048C 3.139 2.19048 2.19 3.06667 2.19 4.23492C 2.19 5.33016 3.066 6.27937 4.23399 6.27937L 4.23399 7.37461L 4.23399 8.46984C 1.898 8.46984 -2.78472e-07 6.57143 -2.78472e-07 4.23492Z"/>
<path id="path9_fill" d="M -1.39237e-07 3.43175C -1.39237e-07 1.53333 1.533 -6.96334e-08 3.43101 -6.96334e-08C 5.32901 -6.96334e-08 6.86202 1.53333 6.86202 3.43175C 6.86202 5.33016 5.32901 6.86349 3.43101 6.86349L 3.43101 6.57143L 3.43101 6.27936C 4.96401 6.27936 6.20501 5.03809 6.20501 3.50476C 6.20501 1.97143 4.96401 0.730159 3.43101 0.657143C 1.898 0.657143 0.657001 1.89841 0.584001 3.50476C 0.584001 5.03809 1.825 6.27936 3.43101 6.27936L 3.43101 6.57143L 3.43101 6.86349C 1.533 6.86349 -1.39237e-07 5.33016 -1.39237e-07 3.43175Z"/>
<path id="path10_fill" d="M -1.39236e-07 3.28571C -1.39236e-07 1.46032 1.46 1.39267e-07 3.285 1.39267e-07C 5.10999 1.39267e-07 6.56999 1.46032 6.56999 3.28571C 6.56999 5.11111 5.10999 6.57143 3.285 6.57143L 3.285 6.4254L 3.285 6.27936C 4.89099 6.27936 6.27799 4.96508 6.27799 3.28571C 6.27799 1.67936 4.96399 0.292063 3.285 0.292063C 1.679 0.292063 0.292 1.60635 0.292 3.28571C 0.292 4.89206 1.606 6.27936 3.285 6.27936L 3.285 6.4254L 3.285 6.57143C 1.46 6.57143 -1.39236e-07 5.11111 -1.39236e-07 3.28571Z"/>
<path id="path11_fill" d="M 0 3.43175C 0 1.53333 1.533 0 3.431 0C 5.329 0 6.862 1.53333 6.862 3.43175C 6.862 5.33016 5.329 6.86349 3.431 6.86349L 3.431 6.57143L 3.431 6.27936C 4.964 6.27936 6.278 5.03809 6.278 3.50476C 6.278 1.97143 5.037 0.730158 3.431 0.657142C 1.898 0.657142 0.657001 1.89841 0.657001 3.50476C 0.657001 5.03809 1.898 6.27936 3.431 6.27936L 3.431 6.57143L 3.431 6.86349C 1.533 6.86349 0 5.33016 0 3.43175Z"/>
<path id="path12_fill" d="M 0 3.28572C 0 1.46032 1.45999 5.57067e-07 3.28499 5.57067e-07C 5.10998 5.57067e-07 6.56998 1.46032 6.56998 3.28572C 6.56998 5.11111 5.10998 6.57143 3.28499 6.57143L 3.28499 6.4254L 3.28499 6.27937C 4.89098 6.27937 6.27798 4.96508 6.27798 3.28572C 6.27798 1.67937 4.96398 0.292064 3.28499 0.292064C 1.67899 0.292064 0.291999 1.60635 0.291999 3.28572C 0.291999 4.89207 1.60599 6.27937 3.28499 6.27937L 3.28499 6.4254L 3.28499 6.57143C 1.45999 6.57143 0 5.11111 0 3.28572Z"/>
<path id="path13_fill" d="M 1.39237e-07 3.57778C 1.39237e-07 1.60635 1.60601 1.39267e-07 3.57701 1.39267e-07C 5.54802 1.39267e-07 7.15402 1.60635 7.15402 3.57778C 7.15402 5.5492 5.54802 7.15555 3.57701 7.15555L 3.57701 6.71746L 3.57701 6.27936C 5.03702 6.27936 6.27802 5.11111 6.27802 3.57778C 6.27802 2.11746 5.11002 0.87619 3.57701 0.87619C 2.11701 0.87619 0.876003 2.11746 0.876003 3.57778C 0.876003 5.03809 2.04401 6.27936 3.57701 6.27936L 3.57701 6.71746L 3.57701 7.15555C 1.60601 7.15555 1.39237e-07 5.5492 1.39237e-07 3.57778Z"/>
<path id="path14_fill" d="M 1.39236e-07 3.72381C 1.39236e-07 1.67937 1.679 2.78533e-07 3.723 2.78533e-07C 5.767 2.78533e-07 7.446 1.67937 7.446 3.72381C 7.446 5.76825 5.767 7.44762 3.723 7.44762L 3.723 6.86349L 3.723 6.20635C 5.11 6.20635 6.205 5.11111 6.205 3.72381C 6.205 2.33651 5.11 1.24127 3.723 1.24127C 2.336 1.24127 1.241 2.33651 1.241 3.72381C 1.241 5.11111 2.336 6.20635 3.723 6.20635L 3.723 6.86349L 3.723 7.52063C 1.679 7.44762 1.39236e-07 5.76825 1.39236e-07 3.72381Z"/>
<path id="path15_fill" d="M 0 3.43175C 0 1.53333 1.533 0 3.431 0C 5.329 0 6.862 1.53333 6.862 3.43175C 6.862 5.33016 5.329 6.86349 3.431 6.86349L 3.431 6.57143L 3.431 6.27936C 4.964 6.27936 6.205 5.03809 6.205 3.50476C 6.205 1.97143 4.964 0.730158 3.431 0.657142C 1.898 0.657142 0.657 1.89841 0.584 3.50476C 0.584 5.03809 1.825 6.27936 3.431 6.27936L 3.431 6.57143L 3.431 6.86349C 1.533 6.86349 0 5.33016 0 3.43175Z"/>
<path id="path16_fill" d="M 1.11389e-06 3.57778C 1.11389e-06 1.60635 1.606 5.57067e-07 3.577 5.57067e-07C 5.54799 5.57067e-07 7.15399 1.60635 7.15399 3.57778C 7.15399 5.5492 5.54799 7.15555 3.577 7.15555L 3.577 6.71746L 3.577 6.27936C 5.03699 6.27936 6.27799 5.11111 6.27799 3.57778C 6.27799 2.11746 5.10999 0.87619 3.577 0.87619C 2.117 0.87619 0.875998 2.04444 0.875998 3.57778C 0.875998 5.03809 2.044 6.27936 3.577 6.27936L 3.577 6.71746L 3.577 7.15555C 1.533 7.15555 1.11389e-06 5.5492 1.11389e-06 3.57778Z"/>
<path id="path17_fill" d="M -5.56946e-07 3.72381C -5.56946e-07 1.67937 1.679 0 3.723 0C 5.767 0 7.446 1.67937 7.446 3.72381C 7.446 5.76825 5.767 7.44762 3.723 7.44762L 3.723 6.79048L 3.723 6.13333C 5.11 6.13333 6.205 5.0381 6.205 3.65079C 6.205 2.26349 5.11 1.16825 3.723 1.16825C 2.336 1.16825 1.241 2.26349 1.241 3.65079C 1.241 5.0381 2.336 6.13333 3.723 6.13333L 3.723 6.79048L 3.723 7.44762C 1.679 7.52064 -5.56946e-07 5.84127 -5.56946e-07 3.72381Z"/>
<path id="path18_fill" d="M 5.56945e-07 3.28571C 5.56945e-07 1.46032 1.46 2.78533e-07 3.285 2.78533e-07C 5.10999 2.78533e-07 6.56999 1.46032 6.56999 3.28571C 6.56999 5.11111 5.10999 6.57142 3.285 6.57142L 3.285 6.4254L 3.285 6.27936C 4.891 6.27936 6.27799 4.96508 6.27799 3.28571C 6.27799 1.67936 4.96399 0.292063 3.285 0.292063C 1.679 0.292063 0.292 1.60635 0.292 3.28571C 0.292 4.89206 1.606 6.27936 3.285 6.27936L 3.285 6.4254L 3.285 6.57142C 1.46 6.57142 5.56945e-07 5.11111 5.56945e-07 3.28571Z"/>
<path id="path19_fill" d="M -1.39237e-07 4.23492C -1.39237e-07 1.89841 1.898 -5.57067e-07 4.23401 -5.57067e-07C 6.57001 -5.57067e-07 8.46802 1.89841 8.46802 4.23492C 8.46802 6.57143 6.57001 8.46984 4.23401 8.46984L 4.23401 7.3746L 4.23401 6.27937C 5.32901 6.27937 6.27801 5.40317 6.27801 4.23492C 6.27801 3.13968 5.40201 2.19048 4.23401 2.19048C 3.13901 2.19048 2.19 3.06667 2.19 4.23492C 2.19 5.33016 3.06601 6.27937 4.23401 6.27937L 4.23401 7.3746L 4.23401 8.46984C 1.898 8.46984 -1.39237e-07 6.57143 -1.39237e-07 4.23492Z"/>
<path id="path20_fill" d="M 0 3.43175C 0 1.53333 1.533 -2.78534e-07 3.431 -2.78534e-07C 5.329 -2.78534e-07 6.862 1.53333 6.862 3.43175C 6.862 5.33016 5.329 6.86349 3.431 6.86349L 3.431 6.57143L 3.431 6.27937C 4.964 6.27937 6.205 5.0381 6.205 3.43175C 6.205 1.89841 4.964 0.657144 3.431 0.584128C 1.898 0.584128 0.657 1.8254 0.584 3.43175C 0.584 4.96508 1.825 6.20635 3.431 6.27937L 3.431 6.57143L 3.431 6.86349C 1.533 6.86349 0 5.33016 0 3.43175Z"/>
<path id="path21_fill" d="M -5.56946e-07 3.28571C -5.56946e-07 1.46032 1.46 -1.11413e-06 3.285 -1.11413e-06C 5.11 -1.11413e-06 6.57001 1.46032 6.57001 3.28571C 6.57001 5.11111 5.11 6.57142 3.285 6.57142L 3.285 6.42539L 3.285 6.27936C 4.891 6.27936 6.27801 4.96507 6.27801 3.28571C 6.27801 1.67936 4.964 0.292063 3.285 0.292063C 1.679 0.292063 0.292001 1.60635 0.292001 3.28571C 0.292001 4.89206 1.606 6.27936 3.285 6.27936L 3.285 6.42539L 3.285 6.49841C 1.46 6.49841 -5.56946e-07 5.03809 -5.56946e-07 3.28571Z"/>
<path id="path22_fill" d="M 5.56945e-07 4.23492C 5.56945e-07 1.89841 1.898 -5.57067e-07 4.23399 -5.57067e-07C 6.56999 -5.57067e-07 8.46799 1.89841 8.46799 4.23492C 8.46799 6.57142 6.56999 8.46984 4.23399 8.46984L 4.23399 7.3746L 4.23399 6.27936C 5.32899 6.27936 6.27799 5.40317 6.27799 4.23492C 6.27799 3.13968 5.40199 2.19047 4.23399 2.19047C 3.139 2.19047 2.19 3.06666 2.19 4.23492C 2.19 5.33015 3.066 6.27936 4.23399 6.27936L 4.23399 7.3746L 4.23399 8.46984C 1.898 8.39682 5.56945e-07 6.49841 5.56945e-07 4.23492Z"/>
<path id="path23_fill" d="M 0 3.43175C 0 1.53333 1.533 1.11413e-06 3.431 1.11413e-06C 5.329 1.11413e-06 6.862 1.53333 6.862 3.43175C 6.862 5.33016 5.329 6.86349 3.431 6.86349L 3.431 6.57143L 3.431 6.27937C 4.964 6.27937 6.205 5.0381 6.205 3.50476C 6.205 1.97143 4.964 0.730159 3.431 0.657143C 1.898 0.657143 0.656999 1.89841 0.583999 3.50476C 0.583999 5.0381 1.825 6.27937 3.431 6.27937L 3.431 6.57143L 3.431 6.86349C 1.533 6.86349 0 5.33016 0 3.43175Z"/>
<path id="path24_fill" d="M -6.9618e-08 3.57778C -6.9618e-08 1.60635 1.60599 5.57067e-07 3.57699 5.57067e-07C 5.54798 5.57067e-07 7.15398 1.60635 7.15398 3.57778C 7.15398 5.54921 5.54798 7.15556 3.57699 7.15556L 3.57699 6.71746L 3.57699 6.27936C 5.03698 6.27936 6.27798 5.11111 6.27798 3.57778C 6.27798 2.11746 5.10998 0.876192 3.57699 0.876192C 2.11699 0.876192 0.875997 2.04444 0.875997 3.57778C 0.875997 5.03809 2.04399 6.27936 3.57699 6.27936L 3.57699 6.71746L 3.57699 7.15556C 1.53299 7.08254 -6.9618e-08 5.47619 -6.9618e-08 3.57778Z"/>
<path id="path25_fill" d="M -1.39236e-07 3.28571C -1.39236e-07 1.46032 1.46 -1.11413e-06 3.285 -1.11413e-06C 5.10999 -1.11413e-06 6.56999 1.46032 6.56999 3.28571C 6.56999 5.11111 5.10999 6.57142 3.285 6.57142L 3.285 6.42539L 3.285 6.27936C 4.89099 6.27936 6.27799 4.96507 6.27799 3.28571C 6.27799 1.67936 4.96399 0.292063 3.285 0.292063C 1.679 0.292063 0.292 1.60635 0.292 3.28571C 0.292 4.89206 1.606 6.27936 3.285 6.27936L 3.285 6.42539L 3.285 6.49841C 1.46 6.49841 -1.39236e-07 5.03809 -1.39236e-07 3.28571Z"/>
</defs>
</svg>
