<svg width="17" height="17" viewBox="0 0 17 17" version="1.1" xmlns="http://www.w3.org/2000/svg" xmlns:xlink="http://www.w3.org/1999/xlink">
<title>help icon</title>
<desc>Created using Figma</desc>
<g id="Canvas" transform="translate(-2440 -2797)">
<g id="help icon">
<g id="&#239;&#129;&#153;">
<use xlink:href="#path0_fill" transform="translate(2441 2798)" fill="#4C596B" fill-opacity="0.33"/>
</g>
</g>
</g>
<defs>
<path id="path0_fill" d="M 8.3832 12.3929C 8.3832 12.5737 8.24258 12.7143 8.06178 12.7143L 6.1332 12.7143C 5.9524 12.7143 5.81178 12.5737 5.81178 12.3929L 5.81178 10.4643C 5.81178 10.2835 5.9524 10.1429 6.1332 10.1429L 8.06178 10.1429C 8.24258 10.1429 8.3832 10.2835 8.3832 10.4643L 8.3832 12.3929ZM 10.9546 5.64286C 10.9546 7.16964 9.90999 7.75223 9.1466 8.18415C 8.6745 8.45536 8.3832 8.94754 8.3832 9.17857C 8.3832 9.35938 8.24258 9.5 8.06178 9.5L 6.1332 9.5C 5.9524 9.5 5.81178 9.35938 5.81178 9.17857L 5.81178 8.81696C 5.81178 7.84263 6.78611 7.00893 7.49928 6.6875C 8.112 6.40625 8.3832 6.14509 8.3832 5.62277C 8.3832 5.1808 7.79057 4.76897 7.14771 4.76897C 6.78611 4.76897 6.45463 4.88951 6.28387 5.01004C 6.09303 5.15067 5.89213 5.33147 5.42003 5.93415C 5.35977 6.01451 5.25932 6.05469 5.16892 6.05469C 5.09861 6.05469 5.02829 6.0346 4.97807 5.99442L 3.65218 4.98996C 3.5216 4.88951 3.48142 4.70871 3.57182 4.56808C 4.43566 3.1317 5.66111 2.42857 7.29838 2.42857C 9.02606 2.42857 10.9546 3.80469 10.9546 5.64286ZM 14.8118 7.57143C 14.8118 3.3125 11.3564 -0.142857 7.09749 -0.142857C 2.83856 -0.142857 -0.616796 3.3125 -0.616796 7.57143C -0.616796 11.8304 2.83856 15.2857 7.09749 15.2857C 11.3564 15.2857 14.8118 11.8304 14.8118 7.57143Z"/>
</defs>
</svg>
