<?xml version="1.0" encoding="utf-8"?>
<!-- Generator: Adobe Illustrator 22.1.0, SVG Export Plug-In . SVG Version: 6.00 Build 0)  -->
<svg version="1.1" id="Layer_1" xmlns="http://www.w3.org/2000/svg" xmlns:xlink="http://www.w3.org/1999/xlink" x="0px" y="0px"
	 viewBox="0 0 30 30" style="enable-background:new 0 0 30 30;" xml:space="preserve">
<style type="text/css">
	.st0{fill-rule:evenodd;clip-rule:evenodd;}
</style>
<path class="st0" d="M15,30c-0.24,0-0.477-0.007-0.715-0.018C6.333,29.61,0,23.045,0,15C0,6.715,6.716,0,15,0
	c0.019,0,0.038,0.001,0.057,0.001c3.819,0.014,7.3,1.455,9.941,3.817c-1.759-1.167-3.815-1.838-6.012-1.838
	c-3.572,0-6.771,1.772-8.923,4.567c-1.658,1.957-2.733,4.852-2.806,8.1v0.706c0.073,3.248,1.148,6.142,2.806,8.1
	c2.152,2.794,5.351,4.566,8.923,4.566c2.197,0,4.253-0.671,6.011-1.837C22.343,28.556,18.84,30,15,30L15,30z"/>
<path class="st0" d="M25.646,25.564c-1.536,0.913-3.256,1.395-5.006,1.395c-1.505,0-2.972-0.356-4.316-1.021
	c3.815-0.788,6.742-5.385,6.742-10.938c0-5.553-2.927-10.15-6.741-10.938c1.344-0.665,2.812-1.021,4.316-1.021
	c1.751,0,3.471,0.482,5.007,1.396C28.337,7.147,30,10.879,30,15C30,19.121,28.337,22.853,25.646,25.564L25.646,25.564z"/>
</svg>
