<svg width="87" height="100" viewBox="0 0 87 100" version="1.1" xmlns="http://www.w3.org/2000/svg" xmlns:xlink="http://www.w3.org/1999/xlink">
<title>Shield</title>
<desc>Created using Figma</desc>
<g id="Canvas" transform="translate(-462 -1132)">
<g id="Shield">
<g id="Vector" opacity="0.15">
<use xlink:href="#path0_fill" transform="translate(505.169 1143.1)" fill="#FFABB7"/>
</g>
<g id="Group">
<g id="Vector">
<use xlink:href="#path1_fill" transform="translate(505.268 1147.7)" fill="#FFABB7"/>
</g>
<g id="Vector">
<use xlink:href="#path2_fill" transform="translate(514.768 1149.2)" fill="#FFABB7"/>
</g>
<g id="Vector">
<use xlink:href="#path3_fill" transform="translate(509.069 1164.7)" fill="#FFABB7"/>
</g>
<g id="Vector">
<use xlink:href="#path4_fill" transform="translate(505.268 1159.1)" fill="#FFABB7"/>
</g>
<g id="Vector">
<use xlink:href="#path5_fill" transform="translate(509.069 1153.4)" fill="#FFABB7"/>
</g>
<g id="Vector">
<use xlink:href="#path6_fill" transform="translate(520.469 1153.4)" fill="#FFABB7"/>
</g>
<g id="Vector">
<use xlink:href="#path7_fill" transform="translate(514.768 1159.1)" fill="#FFABB7"/>
</g>
<g id="Vector">
<use xlink:href="#path8_fill" transform="translate(526.068 1159.1)" fill="#FFABB7"/>
</g>
<g id="Vector">
<use xlink:href="#path9_fill" transform="translate(531.768 1164.7)" fill="#FFABB7"/>
</g>
<g id="Vector">
<use xlink:href="#path10_fill" transform="translate(520.469 1164.7)" fill="#FFABB7"/>
</g>
<g id="Vector">
<use xlink:href="#path11_fill" transform="translate(537.469 1159.4)" fill="#FFABB7"/>
</g>
<g id="Vector">
<use xlink:href="#path12_fill" transform="translate(505.268 1170.4)" fill="#FFABB7"/>
</g>
<g id="Vector">
<use xlink:href="#path13_fill" transform="translate(514.768 1170.4)" fill="#FFABB7"/>
</g>
<g id="Vector">
<use xlink:href="#path14_fill" transform="translate(526.068 1170.4)" fill="#FFABB7"/>
</g>
<g id="Vector">
<use xlink:href="#path15_fill" transform="translate(505.268 1181.7)" fill="#FFABB7"/>
</g>
<g id="Vector">
<use xlink:href="#path16_fill" transform="translate(509.069 1176)" fill="#FFABB7"/>
</g>
<g id="Vector">
<use xlink:href="#path17_fill" transform="translate(520.469 1176)" fill="#FFABB7"/>
</g>
<g id="Vector">
<use xlink:href="#path18_fill" transform="translate(514.768 1181.7)" fill="#FFABB7"/>
</g>
<g id="Vector">
<use xlink:href="#path19_fill" transform="translate(526.068 1181.7)" fill="#FFABB7"/>
</g>
<g id="Vector">
<use xlink:href="#path20_fill" transform="translate(531.768 1176)" fill="#FFABB7"/>
</g>
<g id="Vector">
<use xlink:href="#path21_fill" transform="translate(537.469 1170.6)" fill="#FFABB7"/>
</g>
<g id="Vector">
<use xlink:href="#path22_fill" transform="translate(505.268 1193)" fill="#FFABB7"/>
</g>
<g id="Vector">
<use xlink:href="#path23_fill" transform="translate(514.768 1193)" fill="#FFABB7"/>
</g>
<g id="Vector">
<use xlink:href="#path24_fill" transform="translate(526.068 1193)" fill="#FFABB7"/>
</g>
<g id="Vector">
<use xlink:href="#path25_fill" transform="translate(509.069 1187.3)" fill="#FFABB7"/>
</g>
<g id="Vector">
<use xlink:href="#path26_fill" transform="translate(520.469 1187.3)" fill="#FFABB7"/>
</g>
<g id="Vector">
<use xlink:href="#path27_fill" transform="translate(531.768 1187.3)" fill="#FFABB7"/>
</g>
<g id="Vector">
<use xlink:href="#path28_fill" transform="translate(509.069 1210)" fill="#FFABB7"/>
</g>
<g id="Vector">
<use xlink:href="#path29_fill" transform="translate(505.268 1204.3)" fill="#FFABB7"/>
</g>
<g id="Vector">
<use xlink:href="#path30_fill" transform="translate(509.069 1198.7)" fill="#FFABB7"/>
</g>
<g id="Vector">
<use xlink:href="#path31_fill" transform="translate(520.469 1198.7)" fill="#FFABB7"/>
</g>
<g id="Vector">
<use xlink:href="#path32_fill" transform="translate(514.768 1204.3)" fill="#FFABB7"/>
</g>
<g id="Vector">
<use xlink:href="#path33_fill" transform="translate(520.569 1210.1)" fill="#FFABB7"/>
</g>
<g id="Vector">
<use xlink:href="#path34_fill" transform="translate(505.268 1215.6)" fill="#FFABB7"/>
</g>
</g>
<g id="Vector">
<use xlink:href="#path35_fill" transform="translate(470.334 1141.7)" fill="#FFABB7"/>
</g>
<g id="Vector">
<use xlink:href="#path36_fill" transform="translate(462 1132)" fill="#FFABB7"/>
</g>
</g>
</g>
<defs>
<path id="path0_fill" d="M 33.3 16.3C 19.3 11.6 8.9 6.3 7.62939e-07 3.8147e-07C 7.62939e-07 16.5 7.62939e-07 62.9 7.62939e-07 77.4C 23.7 68.4 34.8 44.4 33.3 16.3Z"/>
<path id="path1_fill" d="M 2 1.9C 2 0.9 1.2 -1.90735e-07 0.100002 -1.90735e-07L -7.62939e-07 -1.90735e-07C -7.62939e-07 1.2 -7.62939e-07 2.4 -7.62939e-07 3.7L 0.100002 3.7C 1.1 3.8 2 3 2 1.9Z"/>
<path id="path2_fill" d="M 1.9 2.3C 2.4 2.3 2.9 2.1 3.2 1.7C 2.1 1.1 1.1 0.600001 -7.62939e-07 7.62939e-07C -7.62939e-07 0.100001 -7.62939e-07 0.3 -7.62939e-07 0.4C -7.62939e-07 1.5 0.900001 2.3 1.9 2.3Z"/>
<path id="path3_fill" d="M 1.9 3.8C 2.94934 3.8 3.8 2.94934 3.8 1.9C 3.8 0.850657 2.94934 0 1.9 0C 0.850659 0 0 0.850657 0 1.9C 0 2.94934 0.850659 3.8 1.9 3.8Z"/>
<path id="path4_fill" d="M 0.2 3.8147e-07C 0.1 3.8147e-07 -7.62939e-07 3.8147e-07 -7.62939e-07 3.8147e-07C -7.62939e-07 1.2 -7.62939e-07 2.5 -7.62939e-07 3.7C 0.0999992 3.7 0.1 3.7 0.2 3.7C 1.2 3.7 2.1 2.9 2.1 1.8C 2.1 0.8 1.2 3.8147e-07 0.2 3.8147e-07Z"/>
<path id="path5_fill" d="M 1.9 3.8C 2.94934 3.8 3.8 2.94934 3.8 1.9C 3.8 0.850658 2.94934 0 1.9 0C 0.850659 0 0 0.850658 0 1.9C 0 2.94934 0.850659 3.8 1.9 3.8Z"/>
<path id="path6_fill" d="M 1.9 3.8C 2.94934 3.8 3.8 2.94934 3.8 1.9C 3.8 0.850658 2.94934 0 1.9 0C 0.85066 0 0 0.850658 0 1.9C 0 2.94934 0.85066 3.8 1.9 3.8Z"/>
<path id="path7_fill" d="M 1.9 3.8147e-07C 0.900001 3.8147e-07 -7.62939e-07 0.8 -7.62939e-07 1.9C -7.62939e-07 2.9 0.800001 3.8 1.9 3.8C 3 3.8 3.8 3 3.8 1.9C 3.8 0.8 2.9 3.8147e-07 1.9 3.8147e-07Z"/>
<path id="path8_fill" d="M 1.9 3.8147e-07C 0.9 3.8147e-07 -1.52588e-06 0.8 -1.52588e-06 1.9C -1.52588e-06 2.9 0.8 3.8 1.9 3.8C 2.9 3.8 3.8 3 3.8 1.9C 3.8 0.8 3 3.8147e-07 1.9 3.8147e-07Z"/>
<path id="path9_fill" d="M 1.9 7.62939e-07C 0.899997 7.62939e-07 3.05176e-06 0.799998 3.05176e-06 1.9C 3.05176e-06 2.9 0.799997 3.8 1.9 3.8C 3 3.8 3.8 3 3.8 1.9C 3.8 0.899998 2.9 7.62939e-07 1.9 7.62939e-07Z"/>
<path id="path10_fill" d="M 1.9 3.8C 2.94934 3.8 3.8 2.94934 3.8 1.9C 3.8 0.850657 2.94934 0 1.9 0C 0.85066 0 0 0.850657 0 1.9C 0 2.94934 0.85066 3.8 1.9 3.8Z"/>
<path id="path11_fill" d="M 1.1 3.3C 1.1 2.2 1.1 1.2 1 0.1C 0.9 0.1 0.900003 -3.8147e-07 0.800003 -3.8147e-07C 0.300003 0.3 0 0.9 0 1.6C 0 2.3 0.399998 3 1.1 3.3Z"/>
<path id="path12_fill" d="M 2 1.9C 2 0.899999 1.2 1.52588e-06 0.100002 1.52588e-06L -7.62939e-07 1.52588e-06C -7.62939e-07 1.2 -7.62939e-07 2.5 -7.62939e-07 3.7L 0.100002 3.7C 1.1 3.7 2 2.9 2 1.9Z"/>
<path id="path13_fill" d="M 1.9 1.52588e-06C 0.900001 1.52588e-06 -7.62939e-07 0.799999 -7.62939e-07 1.9C -7.62939e-07 2.9 0.800001 3.8 1.9 3.8C 3 3.8 3.8 3 3.8 1.9C 3.8 0.799999 2.9 1.52588e-06 1.9 1.52588e-06Z"/>
<path id="path14_fill" d="M 1.9 1.52588e-06C 0.9 1.52588e-06 -1.52588e-06 0.799999 -1.52588e-06 1.9C -1.52588e-06 2.9 0.8 3.8 1.9 3.8C 2.9 3.8 3.8 3 3.8 1.9C 3.8 0.799999 3 1.52588e-06 1.9 1.52588e-06Z"/>
<path id="path15_fill" d="M 0.2 7.62939e-07C 0.1 7.62939e-07 -7.62939e-07 7.62939e-07 -7.62939e-07 7.62939e-07C -7.62939e-07 1.2 -7.62939e-07 2.5 -7.62939e-07 3.7C 0.0999992 3.7 0.1 3.7 0.2 3.7C 1.2 3.7 2.1 2.9 2.1 1.8C 2.1 0.8 1.2 7.62939e-07 0.2 7.62939e-07Z"/>
<path id="path16_fill" d="M 1.9 3.8C 2.94934 3.8 3.8 2.94934 3.8 1.9C 3.8 0.85066 2.94934 0 1.9 0C 0.850659 0 0 0.85066 0 1.9C 0 2.94934 0.850659 3.8 1.9 3.8Z"/>
<path id="path17_fill" d="M 1.9 3.8C 2.94934 3.8 3.8 2.94934 3.8 1.9C 3.8 0.85066 2.94934 0 1.9 0C 0.85066 0 0 0.85066 0 1.9C 0 2.94934 0.85066 3.8 1.9 3.8Z"/>
<path id="path18_fill" d="M 1.9 7.62939e-07C 0.900001 7.62939e-07 -7.62939e-07 0.799998 -7.62939e-07 1.9C -7.62939e-07 2.9 0.800001 3.8 1.9 3.8C 3 3.8 3.8 3 3.8 1.9C 3.8 0.799998 2.9 7.62939e-07 1.9 7.62939e-07Z"/>
<path id="path19_fill" d="M 1.9 7.62939e-07C 0.9 7.62939e-07 -1.52588e-06 0.799998 -1.52588e-06 1.9C -1.52588e-06 2.9 0.8 3.8 1.9 3.8C 2.9 3.8 3.8 3 3.8 1.9C 3.8 0.799998 3 7.62939e-07 1.9 7.62939e-07Z"/>
<path id="path20_fill" d="M 1.9 0C 0.899997 0 3.05176e-06 0.800002 3.05176e-06 1.9C 3.05176e-06 2.9 0.799997 3.8 1.9 3.8C 3 3.8 3.8 3 3.8 1.9C 3.8 0.900002 2.9 0 1.9 0Z"/>
<path id="path21_fill" d="M 0 1.7C 0 2.3 0.299997 2.8 0.699997 3.1C 0.799997 2.1 0.9 1.1 1 -1.52588e-06C 0.3 0.399998 0 0.999999 0 1.7Z"/>
<path id="path22_fill" d="M 2 1.9C 2 0.900002 1.2 0 0.100002 0L -7.62939e-07 0C -7.62939e-07 1.3 -7.62939e-07 2.5 -7.62939e-07 3.7L 0.100002 3.7C 1.1 3.8 2 2.9 2 1.9Z"/>
<path id="path23_fill" d="M 1.9 0C 0.900001 0 -7.62939e-07 0.800002 -7.62939e-07 1.9C -7.62939e-07 2.9 0.800001 3.8 1.9 3.8C 3 3.8 3.8 3 3.8 1.9C 3.8 0.900002 2.9 0 1.9 0Z"/>
<path id="path24_fill" d="M 1.9 0C 0.9 0 -1.52588e-06 0.800002 -1.52588e-06 1.9C -1.52588e-06 2.9 0.8 3.8 1.9 3.8C 2.9 3.8 3.8 3 3.8 1.9C 3.8 0.900002 3 0 1.9 0Z"/>
<path id="path25_fill" d="M 1.9 3.8C 2.94934 3.8 3.8 2.94934 3.8 1.9C 3.8 0.85066 2.94934 0 1.9 0C 0.850659 0 0 0.85066 0 1.9C 0 2.94934 0.850659 3.8 1.9 3.8Z"/>
<path id="path26_fill" d="M 1.9 3.8C 2.94934 3.8 3.8 2.94934 3.8 1.9C 3.8 0.85066 2.94934 0 1.9 0C 0.85066 0 0 0.85066 0 1.9C 0 2.94934 0.85066 3.8 1.9 3.8Z"/>
<path id="path27_fill" d="M 3.05176e-06 1.9C 3.05176e-06 2.9 0.799997 3.8 1.9 3.8C 2 3.8 2.1 3.8 2.2 3.8C 2.6 2.8 2.9 1.8 3.3 0.7C 3 0.3 2.4 -7.62939e-07 1.9 -7.62939e-07C 0.799997 0.0999992 3.05176e-06 0.900001 3.05176e-06 1.9Z"/>
<path id="path28_fill" d="M 1.9 3.8C 2.94934 3.8 3.8 2.94934 3.8 1.9C 3.8 0.85066 2.94934 0 1.9 0C 0.850659 0 0 0.85066 0 1.9C 0 2.94934 0.850659 3.8 1.9 3.8Z"/>
<path id="path29_fill" d="M 0.2 3.05176e-06C 0.1 3.05176e-06 -7.62939e-07 3.05176e-06 -7.62939e-07 3.05176e-06C -7.62939e-07 1.3 -7.62939e-07 2.5 -7.62939e-07 3.7C 0.0999992 3.7 0.1 3.7 0.2 3.7C 1.2 3.7 2.1 2.9 2.1 1.8C 2.1 0.899999 1.2 3.05176e-06 0.2 3.05176e-06Z"/>
<path id="path30_fill" d="M 1.9 3.8C 2.94934 3.8 3.8 2.94934 3.8 1.9C 3.8 0.850657 2.94934 -3.05176e-06 1.9 -3.05176e-06C 0.850659 -3.05176e-06 0 0.850657 0 1.9C 0 2.94934 0.850659 3.8 1.9 3.8Z"/>
<path id="path31_fill" d="M 1.9 3.8C 2.94934 3.8 3.8 2.94934 3.8 1.9C 3.8 0.850657 2.94934 -3.05176e-06 1.9 -3.05176e-06C 0.85066 -3.05176e-06 0 0.850657 0 1.9C 0 2.94934 0.85066 3.8 1.9 3.8Z"/>
<path id="path32_fill" d="M 1.9 3.05176e-06C 0.900001 3.05176e-06 -7.62939e-07 0.799997 -7.62939e-07 1.9C -7.62939e-07 2.9 0.800001 3.8 1.9 3.8C 3 3.8 3.8 3 3.8 1.9C 3.8 0.899997 2.9 3.05176e-06 1.9 3.05176e-06Z"/>
<path id="path33_fill" d="M -1.52588e-06 0.999998C 0.399998 0.699998 0.700001 0.299998 1.1 -1.52588e-06C 0.600001 0.199998 0.199998 0.599998 -1.52588e-06 0.999998Z"/>
<path id="path34_fill" d="M 0.100002 -1.52588e-06C 1.52737e-06 1.4 -7.62939e-07 2.6 -7.62939e-07 3.7L 0.100002 3.7C 1.1 3.7 2 2.9 2 1.8C 2 0.900002 1.1 -1.52588e-06 0.100002 -1.52588e-06Z"/>
<path id="path35_fill" d="M 34.8341 80.3C 34.6341 80.3 34.4341 80.3 34.3341 80.2C 11.3341 71.5 -1.46594 48.1 0.134062 17.7C 0.134062 17.1 0.534062 16.6 1.13406 16.4C 14.3341 12 24.8341 6.9 34.0341 0.3C 34.5341 -0.1 35.2341 -0.1 35.7341 0.3C 44.9341 6.9 55.4341 12 68.6341 16.4C 69.2341 16.6 69.6341 17.1 69.6341 17.7C 71.2341 48.2 58.4341 71.5 35.4341 80.2C 35.2341 80.3 35.0341 80.3 34.8341 80.3ZM 3.03406 18.8C 1.83406 47.1 13.7341 68.9 34.8341 77.1C 56.0341 68.8 67.8341 47.1 66.6341 18.8C 54.0341 14.5 43.8341 9.5 34.8341 3.2C 25.8341 9.6 15.6341 14.5 3.03406 18.8Z"/>
<path id="path36_fill" d="M 43.1685 99.6C 42.9685 99.6 42.7685 99.6 42.6685 99.5C 14.0685 88.7 -1.83148 59.7 0.168516 21.8C 0.168516 21.2 0.568516 20.7 1.16852 20.5C 17.6685 15 30.7685 8.6 42.2685 0.3C 42.7685 -0.1 43.4685 -0.1 43.9685 0.3C 55.4685 8.6 68.5685 15 85.0685 20.5C 85.6685 20.7 86.0685 21.2 86.0685 21.8C 88.0685 59.6 72.1685 88.7 43.5685 99.5C 43.5685 99.5 43.3685 99.6 43.1685 99.6ZM 3.16852 23C 1.56852 58.7 16.4685 86.1 43.1685 96.5C 69.8685 86.1 84.7685 58.7 83.2685 23C 67.3685 17.6 54.5685 11.3 43.1685 3.4C 31.8685 11.3 19.0685 17.6 3.16852 23Z"/>
</defs>
</svg>
