<?xml version="1.0" encoding="utf-8"?>
<!-- Generator: Adobe Illustrator 22.1.0, SVG Export Plug-In . SVG Version: 6.00 Build 0)  -->
<svg version="1.1" id="Layer_1" xmlns="http://www.w3.org/2000/svg" xmlns:xlink="http://www.w3.org/1999/xlink" x="0px" y="0px" 
	 viewBox="0 0 92.1 40.9" style="enable-background:new 0 0 92.1 40.9;" xml:space="preserve">
<style type="text/css">
	.st0{fill:#2B3748;}
</style>
<path class="st0" d="M92.1,22.7c0-6.6-3.2-11.7-9.2-11.7s-9.8,5.2-9.8,11.7c0,7.7,4.4,11.3,10.6,11.3c3.1,0,5.3-0.7,7.1-1.7v-4.8
	c-1.7,0.9-3.7,1.4-6.3,1.4c-2.5,0-4.7-0.9-5-3.9h12.5C92.1,24.7,92.1,23.3,92.1,22.7 M79.5,20.3c0-2.9,1.8-4.1,3.4-4.1
	c1.6,0,3.2,1.2,3.2,4.1H79.5z M63.2,11c-2.5,0-4.1,1.2-5,2l-0.3-1.6h-5.6v29.5l6.4-1.4l0-7.2c0.9,0.7,2.3,1.6,4.5,1.6
	c4.6,0,8.8-3.3,8.8-11.5C72,15,67.7,11,63.2,11 M61.7,28.6c-1.5,0-2.4-0.5-3-1.2l0-9.5c0.7-0.7,1.6-1.3,3.1-1.3c2.3,0,3.9,2.6,3.9,6
	C65.7,26.1,64.1,28.6,61.7,28.6 M49.9,2.9v5.2l-6.4,1.4V4.3L49.9,2.9 M43.5,11.4h6.4v22.1h-6.4V11.4z M36.6,13.3
	c1.5-2.8,4.5-2.2,5.3-1.9v5.9c-0.8-0.3-3.4-0.6-4.9,1.3v14.8h-6.4V11.4h5.5L36.6,13.3 M23.8,11.4h4.9v5.4h-4.9V26
	c0,3.8,4,2.6,4.9,2.3v4.9c-0.8,0.5-2.4,0.8-4.5,0.8c-3.8,0-6.6-2.4-6.6-6.2l0-20.5l6.2-1.3L23.8,11.4L23.8,11.4z M6.5,17.9
	c0,2.9,9.8,1.5,9.8,9.1c0,4.6-3.7,6.9-9,6.9c-2.2,0-4.6-0.4-7-1.5v-5.8c2.1,1.2,4.9,2,7,2c1.4,0,2.4-0.4,2.4-1.6
	c0-3.1-9.7-1.9-9.7-9C0,13.7,3.5,11,8.6,11c2.1,0,4.2,0.3,6.4,1.2v6c-1.9-1.1-4.4-1.6-6.4-1.6C7.3,16.5,6.5,16.9,6.5,17.9"/>
</svg>
