<svg width="30" height="31" viewBox="0 0 30 31" version="1.1" xmlns="http://www.w3.org/2000/svg" xmlns:xlink="http://www.w3.org/1999/xlink">
<title>Ubuntu</title>
<desc>Created using Figma</desc>
<g id="Canvas" transform="translate(-150 -3344)">
<g id="Ubuntu">
<g id="Path 133 1">
<use xlink:href="#path0_fill" transform="translate(155.6 3348.9)" fill="#96A0A3"/>
<use xlink:href="#path0_fill" transform="translate(155.6 3348.9)" fill="#4C596B"/>
<use xlink:href="#path0_fill" transform="translate(155.6 3348.9)" fill="#EF6050"/>
<use xlink:href="#path0_fill" transform="translate(155.6 3348.9)" fill="#90E89D"/>
</g>
<g id="Path 134 1">
<use xlink:href="#path1_fill" transform="translate(150 3356.1)" fill="#96A0A3"/>
<use xlink:href="#path1_fill" transform="translate(150 3356.1)" fill="#4C596B"/>
<use xlink:href="#path1_fill" transform="translate(150 3356.1)" fill="#EF6050"/>
<use xlink:href="#path1_fill" transform="translate(150 3356.1)" fill="#90E89D"/>
</g>
<g id="Path 135 1">
<use xlink:href="#path2_fill" transform="translate(162.1 3359.8)" fill="#96A0A3"/>
<use xlink:href="#path2_fill" transform="translate(162.1 3359.8)" fill="#4C596B"/>
<use xlink:href="#path2_fill" transform="translate(162.1 3359.8)" fill="#EF6050"/>
<use xlink:href="#path2_fill" transform="translate(162.1 3359.8)" fill="#90E89D"/>
</g>
<g id="Path 136 1">
<use xlink:href="#path3_fill" transform="translate(171.3 3368.4)" fill="#96A0A3"/>
<use xlink:href="#path3_fill" transform="translate(171.3 3368.4)" fill="#4C596B"/>
<use xlink:href="#path3_fill" transform="translate(171.3 3368.4)" fill="#EF6050"/>
<use xlink:href="#path3_fill" transform="translate(171.3 3368.4)" fill="#90E89D"/>
</g>
<g id="Path 137 1">
<use xlink:href="#path4_fill" transform="translate(162.1 3346.49)" fill="#96A0A3"/>
<use xlink:href="#path4_fill" transform="translate(162.1 3346.49)" fill="#4C596B"/>
<use xlink:href="#path4_fill" transform="translate(162.1 3346.49)" fill="#EF6050"/>
<use xlink:href="#path4_fill" transform="translate(162.1 3346.49)" fill="#90E89D"/>
</g>
<g id="Path 138 1">
<use xlink:href="#path5_fill" transform="translate(171.2 3344)" fill="#96A0A3"/>
<use xlink:href="#path5_fill" transform="translate(171.2 3344)" fill="#4C596B"/>
<use xlink:href="#path5_fill" transform="translate(171.2 3344)" fill="#EF6050"/>
<use xlink:href="#path5_fill" transform="translate(171.2 3344)" fill="#90E89D"/>
</g>
</g>
</g>
<defs>
<path id="path0_fill" d="M 4.50001 10.2001C 4.50001 7.9001 5.6 5.69995 7.4 4.29995L 4.7 -9.76563e-05C 2.4 1.5999 0.800006 3.9 6.10352e-06 6.6C 2.10001 7.9 2.69999 10.7 1.29999 12.8C 0.999994 13.3 0.599997 13.7 0.0999969 14.1C 0.899997 16.6 2.59999 18.8 4.79999 20.4L 7.29999 15.9999C 5.59999 14.4999 4.50001 12.4001 4.50001 10.2001Z"/>
<path id="path1_fill" d="M 3.2 9.76563e-05C 1.4 9.76563e-05 0 1.40005 0 3.20005C 0 5.00005 1.4 6.4 3.2 6.4C 5 6.4 6.39999 5.00005 6.39999 3.20005C 6.39999 1.40005 5 9.76563e-05 3.2 9.76563e-05Z"/>
<path id="path2_fill" d="M 12.4 7.3001C 13.1 7.3001 13.8 7.5001 14.5 7.8001C 16.5 5.7001 17.7 2.9999 17.9 0.0999023L 12.9 4.88281e-05C 12.5 4.10005 8.8 7.0999 4.7 6.5999C 3.9 6.4999 3.20001 6.30005 2.50001 6.00005L 6.10352e-06 10.4C 1.70001 11.2 3.60001 11.7 5.50001 11.7C 6.30001 11.7 7.20001 11.6 8.00001 11.4C 8.20001 9.09995 10.1 7.3001 12.4 7.3001Z"/>
<path id="path3_fill" d="M 3.2 -9.76563e-05C 1.4 -9.76563e-05 3.05176e-06 1.4001 3.05176e-06 3.2001C 3.05176e-06 5.0001 1.4 6.40005 3.2 6.40005C 5 6.40005 6.4 5.0001 6.4 3.2001C 6.5 1.4001 5 -9.76563e-05 3.2 -9.76563e-05Z"/>
<path id="path4_fill" d="M 5.50001 5.11063C 9.30001 5.11063 12.5 7.91048 12.9 11.7105L 17.9 11.5105C 17.7 8.81053 16.6 6.31058 14.9 4.31058C 12.9 5.71058 10.1 5.31048 8.7 3.21048C 8.2 2.41048 7.9 1.51063 7.9 0.610626C 7.9 0.510626 7.9 0.310479 7.9 0.210479C 5.2 -0.289521 2.50001 0.110577 6.10352e-06 1.31058L 2.50001 5.71048C 3.40001 5.31048 4.40001 5.11063 5.50001 5.11063Z"/>
<path id="path5_fill" d="M 3.19999 6.3999C 4.99999 6.3999 6.40001 4.99995 6.40001 3.19995C 6.40001 1.39995 4.99999 -4.54747e-13 3.19999 -4.54747e-13C 1.39999 -4.54747e-13 -3.05176e-06 1.39995 -3.05176e-06 3.19995C -3.05176e-06 4.99995 1.39999 6.3999 3.19999 6.3999Z"/>
</defs>
</svg>
